%TF.GenerationSoftware,KiCad,Pcbnew,(6.0.1)*%
%TF.CreationDate,2022-06-19T22:09:19+09:00*%
%TF.ProjectId,reverse-mount-led-keboard,72657665-7273-4652-9d6d-6f756e742d6c,rev?*%
%TF.SameCoordinates,Original*%
%TF.FileFunction,Legend,Bot*%
%TF.FilePolarity,Positive*%
%FSLAX46Y46*%
G04 Gerber Fmt 4.6, Leading zero omitted, Abs format (unit mm)*
G04 Created by KiCad (PCBNEW (6.0.1)) date 2022-06-19 22:09:19*
%MOMM*%
%LPD*%
G01*
G04 APERTURE LIST*
%ADD10C,0.300000*%
%ADD11C,0.150000*%
%ADD12C,0.120000*%
G04 APERTURE END LIST*
D10*
X-766814761Y589300476D02*
X-765862380Y588633809D01*
X-766814761Y588157619D02*
X-764814761Y588157619D01*
X-764814761Y588919523D01*
X-764910000Y589110000D01*
X-765005238Y589205238D01*
X-765195714Y589300476D01*
X-765481428Y589300476D01*
X-765671904Y589205238D01*
X-765767142Y589110000D01*
X-765862380Y588919523D01*
X-765862380Y588157619D01*
X-766719523Y590919523D02*
X-766814761Y590729047D01*
X-766814761Y590348095D01*
X-766719523Y590157619D01*
X-766529047Y590062380D01*
X-765767142Y590062380D01*
X-765576666Y590157619D01*
X-765481428Y590348095D01*
X-765481428Y590729047D01*
X-765576666Y590919523D01*
X-765767142Y591014761D01*
X-765957619Y591014761D01*
X-766148095Y590062380D01*
X-765481428Y591681428D02*
X-766814761Y592157619D01*
X-765481428Y592633809D01*
X-766719523Y594157619D02*
X-766814761Y593967142D01*
X-766814761Y593586190D01*
X-766719523Y593395714D01*
X-766529047Y593300476D01*
X-765767142Y593300476D01*
X-765576666Y593395714D01*
X-765481428Y593586190D01*
X-765481428Y593967142D01*
X-765576666Y594157619D01*
X-765767142Y594252857D01*
X-765957619Y594252857D01*
X-766148095Y593300476D01*
X-766814761Y595110000D02*
X-765481428Y595110000D01*
X-765862380Y595110000D02*
X-765671904Y595205238D01*
X-765576666Y595300476D01*
X-765481428Y595490952D01*
X-765481428Y595681428D01*
X-766719523Y596252857D02*
X-766814761Y596443333D01*
X-766814761Y596824285D01*
X-766719523Y597014761D01*
X-766529047Y597110000D01*
X-766433809Y597110000D01*
X-766243333Y597014761D01*
X-766148095Y596824285D01*
X-766148095Y596538571D01*
X-766052857Y596348095D01*
X-765862380Y596252857D01*
X-765767142Y596252857D01*
X-765576666Y596348095D01*
X-765481428Y596538571D01*
X-765481428Y596824285D01*
X-765576666Y597014761D01*
X-766719523Y598729047D02*
X-766814761Y598538571D01*
X-766814761Y598157619D01*
X-766719523Y597967142D01*
X-766529047Y597871904D01*
X-765767142Y597871904D01*
X-765576666Y597967142D01*
X-765481428Y598157619D01*
X-765481428Y598538571D01*
X-765576666Y598729047D01*
X-765767142Y598824285D01*
X-765957619Y598824285D01*
X-766148095Y597871904D01*
X-766814761Y601205238D02*
X-764814761Y601205238D01*
X-766243333Y601871904D01*
X-764814761Y602538571D01*
X-766814761Y602538571D01*
X-766814761Y603776666D02*
X-766719523Y603586190D01*
X-766624285Y603490952D01*
X-766433809Y603395714D01*
X-765862380Y603395714D01*
X-765671904Y603490952D01*
X-765576666Y603586190D01*
X-765481428Y603776666D01*
X-765481428Y604062380D01*
X-765576666Y604252857D01*
X-765671904Y604348095D01*
X-765862380Y604443333D01*
X-766433809Y604443333D01*
X-766624285Y604348095D01*
X-766719523Y604252857D01*
X-766814761Y604062380D01*
X-766814761Y603776666D01*
X-765481428Y606157619D02*
X-766814761Y606157619D01*
X-765481428Y605300476D02*
X-766529047Y605300476D01*
X-766719523Y605395714D01*
X-766814761Y605586190D01*
X-766814761Y605871904D01*
X-766719523Y606062380D01*
X-766624285Y606157619D01*
X-765481428Y607110000D02*
X-766814761Y607110000D01*
X-765671904Y607110000D02*
X-765576666Y607205238D01*
X-765481428Y607395714D01*
X-765481428Y607681428D01*
X-765576666Y607871904D01*
X-765767142Y607967142D01*
X-766814761Y607967142D01*
X-765481428Y608633809D02*
X-765481428Y609395714D01*
X-764814761Y608919523D02*
X-766529047Y608919523D01*
X-766719523Y609014761D01*
X-766814761Y609205238D01*
X-766814761Y609395714D01*
X-766814761Y612538571D02*
X-766814761Y611586190D01*
X-764814761Y611586190D01*
X-765767142Y613205238D02*
X-765767142Y613871904D01*
X-766814761Y614157619D02*
X-766814761Y613205238D01*
X-764814761Y613205238D01*
X-764814761Y614157619D01*
X-766814761Y615014761D02*
X-764814761Y615014761D01*
X-764814761Y615490952D01*
X-764910000Y615776666D01*
X-765100476Y615967142D01*
X-765290952Y616062380D01*
X-765671904Y616157619D01*
X-765957619Y616157619D01*
X-766338571Y616062380D01*
X-766529047Y615967142D01*
X-766719523Y615776666D01*
X-766814761Y615490952D01*
X-766814761Y615014761D01*
D11*
X-697230000Y601027500D02*
X-693420000Y601027500D01*
X-693420000Y601027500D02*
X-693420000Y583882500D01*
X-693420000Y583882500D02*
X-697230000Y583882500D01*
X-697230000Y583882500D02*
X-697230000Y601027500D01*
X-697230000Y581977500D02*
X-693420000Y581977500D01*
X-693420000Y581977500D02*
X-693420000Y564832500D01*
X-693420000Y564832500D02*
X-697230000Y564832500D01*
X-697230000Y564832500D02*
X-697230000Y581977500D01*
X-697230000Y620077500D02*
X-693420000Y620077500D01*
X-693420000Y620077500D02*
X-693420000Y602932500D01*
X-693420000Y602932500D02*
X-697230000Y602932500D01*
X-697230000Y602932500D02*
X-697230000Y620077500D01*
X-694777380Y567571666D02*
X-695777380Y567809761D01*
X-695063095Y568000238D01*
X-695777380Y568190714D01*
X-694777380Y568428809D01*
X-695729761Y568762142D02*
X-695777380Y568905000D01*
X-695777380Y569143095D01*
X-695729761Y569238333D01*
X-695682142Y569285952D01*
X-695586904Y569333571D01*
X-695491666Y569333571D01*
X-695396428Y569285952D01*
X-695348809Y569238333D01*
X-695301190Y569143095D01*
X-695253571Y568952619D01*
X-695205952Y568857380D01*
X-695158333Y568809761D01*
X-695063095Y568762142D01*
X-694967857Y568762142D01*
X-694872619Y568809761D01*
X-694825000Y568857380D01*
X-694777380Y568952619D01*
X-694777380Y569190714D01*
X-694825000Y569333571D01*
X-694872619Y569714523D02*
X-694825000Y569762142D01*
X-694777380Y569857380D01*
X-694777380Y570095476D01*
X-694825000Y570190714D01*
X-694872619Y570238333D01*
X-694967857Y570285952D01*
X-695063095Y570285952D01*
X-695205952Y570238333D01*
X-695777380Y569666904D01*
X-695777380Y570285952D01*
X-695205952Y570857380D02*
X-695158333Y570762142D01*
X-695110714Y570714523D01*
X-695015476Y570666904D01*
X-694967857Y570666904D01*
X-694872619Y570714523D01*
X-694825000Y570762142D01*
X-694777380Y570857380D01*
X-694777380Y571047857D01*
X-694825000Y571143095D01*
X-694872619Y571190714D01*
X-694967857Y571238333D01*
X-695015476Y571238333D01*
X-695110714Y571190714D01*
X-695158333Y571143095D01*
X-695205952Y571047857D01*
X-695205952Y570857380D01*
X-695253571Y570762142D01*
X-695301190Y570714523D01*
X-695396428Y570666904D01*
X-695586904Y570666904D01*
X-695682142Y570714523D01*
X-695729761Y570762142D01*
X-695777380Y570857380D01*
X-695777380Y571047857D01*
X-695729761Y571143095D01*
X-695682142Y571190714D01*
X-695586904Y571238333D01*
X-695396428Y571238333D01*
X-695301190Y571190714D01*
X-695253571Y571143095D01*
X-695205952Y571047857D01*
X-695777380Y572190714D02*
X-695777380Y571619285D01*
X-695777380Y571905000D02*
X-694777380Y571905000D01*
X-694920238Y571809761D01*
X-695015476Y571714523D01*
X-695063095Y571619285D01*
X-694872619Y572571666D02*
X-694825000Y572619285D01*
X-694777380Y572714523D01*
X-694777380Y572952619D01*
X-694825000Y573047857D01*
X-694872619Y573095476D01*
X-694967857Y573143095D01*
X-695063095Y573143095D01*
X-695205952Y573095476D01*
X-695777380Y572524047D01*
X-695777380Y573143095D01*
X-695682142Y574143095D02*
X-695729761Y574095476D01*
X-695777380Y573952619D01*
X-695777380Y573857380D01*
X-695729761Y573714523D01*
X-695634523Y573619285D01*
X-695539285Y573571666D01*
X-695348809Y573524047D01*
X-695205952Y573524047D01*
X-695015476Y573571666D01*
X-694920238Y573619285D01*
X-694825000Y573714523D01*
X-694777380Y573857380D01*
X-694777380Y573952619D01*
X-694825000Y574095476D01*
X-694872619Y574143095D01*
X-695396428Y574571666D02*
X-695396428Y575333571D01*
X-694872619Y575762142D02*
X-694825000Y575809761D01*
X-694777380Y575905000D01*
X-694777380Y576143095D01*
X-694825000Y576238333D01*
X-694872619Y576285952D01*
X-694967857Y576333571D01*
X-695063095Y576333571D01*
X-695205952Y576285952D01*
X-695777380Y575714523D01*
X-695777380Y576333571D01*
X-694777380Y576952619D02*
X-694777380Y577047857D01*
X-694825000Y577143095D01*
X-694872619Y577190714D01*
X-694967857Y577238333D01*
X-695158333Y577285952D01*
X-695396428Y577285952D01*
X-695586904Y577238333D01*
X-695682142Y577190714D01*
X-695729761Y577143095D01*
X-695777380Y577047857D01*
X-695777380Y576952619D01*
X-695729761Y576857380D01*
X-695682142Y576809761D01*
X-695586904Y576762142D01*
X-695396428Y576714523D01*
X-695158333Y576714523D01*
X-694967857Y576762142D01*
X-694872619Y576809761D01*
X-694825000Y576857380D01*
X-694777380Y576952619D01*
X-694872619Y577666904D02*
X-694825000Y577714523D01*
X-694777380Y577809761D01*
X-694777380Y578047857D01*
X-694825000Y578143095D01*
X-694872619Y578190714D01*
X-694967857Y578238333D01*
X-695063095Y578238333D01*
X-695205952Y578190714D01*
X-695777380Y577619285D01*
X-695777380Y578238333D01*
X-694777380Y578857380D02*
X-694777380Y578952619D01*
X-694825000Y579047857D01*
X-694872619Y579095476D01*
X-694967857Y579143095D01*
X-695158333Y579190714D01*
X-695396428Y579190714D01*
X-695586904Y579143095D01*
X-695682142Y579095476D01*
X-695729761Y579047857D01*
X-695777380Y578952619D01*
X-695777380Y578857380D01*
X-695729761Y578762142D01*
X-695682142Y578714523D01*
X-695586904Y578666904D01*
X-695396428Y578619285D01*
X-695158333Y578619285D01*
X-694967857Y578666904D01*
X-694872619Y578714523D01*
X-694825000Y578762142D01*
X-694777380Y578857380D01*
X-695729761Y585288333D02*
X-695777380Y585431190D01*
X-695777380Y585669285D01*
X-695729761Y585764523D01*
X-695682142Y585812142D01*
X-695586904Y585859761D01*
X-695491666Y585859761D01*
X-695396428Y585812142D01*
X-695348809Y585764523D01*
X-695301190Y585669285D01*
X-695253571Y585478809D01*
X-695205952Y585383571D01*
X-695158333Y585335952D01*
X-695063095Y585288333D01*
X-694967857Y585288333D01*
X-694872619Y585335952D01*
X-694825000Y585383571D01*
X-694777380Y585478809D01*
X-694777380Y585716904D01*
X-694825000Y585859761D01*
X-695777380Y586288333D02*
X-694777380Y586288333D01*
X-695777380Y586859761D02*
X-695205952Y586431190D01*
X-694777380Y586859761D02*
X-695348809Y586288333D01*
X-694777380Y587716904D02*
X-694777380Y587526428D01*
X-694825000Y587431190D01*
X-694872619Y587383571D01*
X-695015476Y587288333D01*
X-695205952Y587240714D01*
X-695586904Y587240714D01*
X-695682142Y587288333D01*
X-695729761Y587335952D01*
X-695777380Y587431190D01*
X-695777380Y587621666D01*
X-695729761Y587716904D01*
X-695682142Y587764523D01*
X-695586904Y587812142D01*
X-695348809Y587812142D01*
X-695253571Y587764523D01*
X-695205952Y587716904D01*
X-695158333Y587621666D01*
X-695158333Y587431190D01*
X-695205952Y587335952D01*
X-695253571Y587288333D01*
X-695348809Y587240714D01*
X-695205952Y588383571D02*
X-695158333Y588288333D01*
X-695110714Y588240714D01*
X-695015476Y588193095D01*
X-694967857Y588193095D01*
X-694872619Y588240714D01*
X-694825000Y588288333D01*
X-694777380Y588383571D01*
X-694777380Y588574047D01*
X-694825000Y588669285D01*
X-694872619Y588716904D01*
X-694967857Y588764523D01*
X-695015476Y588764523D01*
X-695110714Y588716904D01*
X-695158333Y588669285D01*
X-695205952Y588574047D01*
X-695205952Y588383571D01*
X-695253571Y588288333D01*
X-695301190Y588240714D01*
X-695396428Y588193095D01*
X-695586904Y588193095D01*
X-695682142Y588240714D01*
X-695729761Y588288333D01*
X-695777380Y588383571D01*
X-695777380Y588574047D01*
X-695729761Y588669285D01*
X-695682142Y588716904D01*
X-695586904Y588764523D01*
X-695396428Y588764523D01*
X-695301190Y588716904D01*
X-695253571Y588669285D01*
X-695205952Y588574047D01*
X-695777380Y589716904D02*
X-695777380Y589145476D01*
X-695777380Y589431190D02*
X-694777380Y589431190D01*
X-694920238Y589335952D01*
X-695015476Y589240714D01*
X-695063095Y589145476D01*
X-694872619Y590097857D02*
X-694825000Y590145476D01*
X-694777380Y590240714D01*
X-694777380Y590478809D01*
X-694825000Y590574047D01*
X-694872619Y590621666D01*
X-694967857Y590669285D01*
X-695063095Y590669285D01*
X-695205952Y590621666D01*
X-695777380Y590050238D01*
X-695777380Y590669285D01*
X-695777380Y591097857D02*
X-694777380Y591097857D01*
X-694777380Y591335952D01*
X-694825000Y591478809D01*
X-694920238Y591574047D01*
X-695015476Y591621666D01*
X-695205952Y591669285D01*
X-695348809Y591669285D01*
X-695539285Y591621666D01*
X-695634523Y591574047D01*
X-695729761Y591478809D01*
X-695777380Y591335952D01*
X-695777380Y591097857D01*
X-695396428Y592097857D02*
X-695396428Y592859761D01*
X-695253571Y593335952D02*
X-695253571Y593669285D01*
X-695777380Y593812142D02*
X-695777380Y593335952D01*
X-694777380Y593335952D01*
X-694777380Y593812142D01*
X-695682142Y594812142D02*
X-695729761Y594764523D01*
X-695777380Y594621666D01*
X-695777380Y594526428D01*
X-695729761Y594383571D01*
X-695634523Y594288333D01*
X-695539285Y594240714D01*
X-695348809Y594193095D01*
X-695205952Y594193095D01*
X-695015476Y594240714D01*
X-694920238Y594288333D01*
X-694825000Y594383571D01*
X-694777380Y594526428D01*
X-694777380Y594621666D01*
X-694825000Y594764523D01*
X-694872619Y594812142D01*
X-694777380Y595145476D02*
X-694777380Y595764523D01*
X-695158333Y595431190D01*
X-695158333Y595574047D01*
X-695205952Y595669285D01*
X-695253571Y595716904D01*
X-695348809Y595764523D01*
X-695586904Y595764523D01*
X-695682142Y595716904D01*
X-695729761Y595669285D01*
X-695777380Y595574047D01*
X-695777380Y595288333D01*
X-695729761Y595193095D01*
X-695682142Y595145476D01*
X-694872619Y596145476D02*
X-694825000Y596193095D01*
X-694777380Y596288333D01*
X-694777380Y596526428D01*
X-694825000Y596621666D01*
X-694872619Y596669285D01*
X-694967857Y596716904D01*
X-695063095Y596716904D01*
X-695205952Y596669285D01*
X-695777380Y596097857D01*
X-695777380Y596716904D01*
X-695777380Y597669285D02*
X-695777380Y597097857D01*
X-695777380Y597383571D02*
X-694777380Y597383571D01*
X-694920238Y597288333D01*
X-695015476Y597193095D01*
X-695063095Y597097857D01*
X-694777380Y598288333D02*
X-694777380Y598383571D01*
X-694825000Y598478809D01*
X-694872619Y598526428D01*
X-694967857Y598574047D01*
X-695158333Y598621666D01*
X-695396428Y598621666D01*
X-695586904Y598574047D01*
X-695682142Y598526428D01*
X-695729761Y598478809D01*
X-695777380Y598383571D01*
X-695777380Y598288333D01*
X-695729761Y598193095D01*
X-695682142Y598145476D01*
X-695586904Y598097857D01*
X-695396428Y598050238D01*
X-695158333Y598050238D01*
X-694967857Y598097857D01*
X-694872619Y598145476D01*
X-694825000Y598193095D01*
X-694777380Y598288333D01*
X-695777380Y599621666D02*
X-695301190Y599288333D01*
X-695777380Y599050238D02*
X-694777380Y599050238D01*
X-694777380Y599431190D01*
X-694825000Y599526428D01*
X-694872619Y599574047D01*
X-694967857Y599621666D01*
X-695110714Y599621666D01*
X-695205952Y599574047D01*
X-695253571Y599526428D01*
X-695301190Y599431190D01*
X-695301190Y599050238D01*
X-695729761Y606171666D02*
X-695777380Y606314523D01*
X-695777380Y606552619D01*
X-695729761Y606647857D01*
X-695682142Y606695476D01*
X-695586904Y606743095D01*
X-695491666Y606743095D01*
X-695396428Y606695476D01*
X-695348809Y606647857D01*
X-695301190Y606552619D01*
X-695253571Y606362142D01*
X-695205952Y606266904D01*
X-695158333Y606219285D01*
X-695063095Y606171666D01*
X-694967857Y606171666D01*
X-694872619Y606219285D01*
X-694825000Y606266904D01*
X-694777380Y606362142D01*
X-694777380Y606600238D01*
X-694825000Y606743095D01*
X-695777380Y607171666D02*
X-694777380Y607171666D01*
X-695777380Y607743095D02*
X-695205952Y607314523D01*
X-694777380Y607743095D02*
X-695348809Y607171666D01*
X-694777380Y608600238D02*
X-694777380Y608409761D01*
X-694825000Y608314523D01*
X-694872619Y608266904D01*
X-695015476Y608171666D01*
X-695205952Y608124047D01*
X-695586904Y608124047D01*
X-695682142Y608171666D01*
X-695729761Y608219285D01*
X-695777380Y608314523D01*
X-695777380Y608505000D01*
X-695729761Y608600238D01*
X-695682142Y608647857D01*
X-695586904Y608695476D01*
X-695348809Y608695476D01*
X-695253571Y608647857D01*
X-695205952Y608600238D01*
X-695158333Y608505000D01*
X-695158333Y608314523D01*
X-695205952Y608219285D01*
X-695253571Y608171666D01*
X-695348809Y608124047D01*
X-695205952Y609266904D02*
X-695158333Y609171666D01*
X-695110714Y609124047D01*
X-695015476Y609076428D01*
X-694967857Y609076428D01*
X-694872619Y609124047D01*
X-694825000Y609171666D01*
X-694777380Y609266904D01*
X-694777380Y609457380D01*
X-694825000Y609552619D01*
X-694872619Y609600238D01*
X-694967857Y609647857D01*
X-695015476Y609647857D01*
X-695110714Y609600238D01*
X-695158333Y609552619D01*
X-695205952Y609457380D01*
X-695205952Y609266904D01*
X-695253571Y609171666D01*
X-695301190Y609124047D01*
X-695396428Y609076428D01*
X-695586904Y609076428D01*
X-695682142Y609124047D01*
X-695729761Y609171666D01*
X-695777380Y609266904D01*
X-695777380Y609457380D01*
X-695729761Y609552619D01*
X-695682142Y609600238D01*
X-695586904Y609647857D01*
X-695396428Y609647857D01*
X-695301190Y609600238D01*
X-695253571Y609552619D01*
X-695205952Y609457380D01*
X-695777380Y610600238D02*
X-695777380Y610028809D01*
X-695777380Y610314523D02*
X-694777380Y610314523D01*
X-694920238Y610219285D01*
X-695015476Y610124047D01*
X-695063095Y610028809D01*
X-694872619Y610981190D02*
X-694825000Y611028809D01*
X-694777380Y611124047D01*
X-694777380Y611362142D01*
X-694825000Y611457380D01*
X-694872619Y611505000D01*
X-694967857Y611552619D01*
X-695063095Y611552619D01*
X-695205952Y611505000D01*
X-695777380Y610933571D01*
X-695777380Y611552619D01*
X-695777380Y611981190D02*
X-694777380Y611981190D01*
X-695491666Y612314523D01*
X-694777380Y612647857D01*
X-695777380Y612647857D01*
X-695777380Y613124047D02*
X-694777380Y613124047D01*
X-695777380Y613600238D02*
X-694777380Y613600238D01*
X-695777380Y614171666D01*
X-694777380Y614171666D01*
X-695777380Y614647857D02*
X-694777380Y614647857D01*
X-695396428Y615124047D02*
X-695396428Y615885952D01*
X-695253571Y616362142D02*
X-695253571Y616695476D01*
X-695777380Y616838333D02*
X-695777380Y616362142D01*
X-694777380Y616362142D01*
X-694777380Y616838333D01*
%TO.C,LED6*%
X-706587952Y585335119D02*
X-706111761Y585335119D01*
X-706111761Y586335119D01*
X-706921285Y585858928D02*
X-707254619Y585858928D01*
X-707397476Y585335119D02*
X-706921285Y585335119D01*
X-706921285Y586335119D01*
X-707397476Y586335119D01*
X-707826047Y585335119D02*
X-707826047Y586335119D01*
X-708064142Y586335119D01*
X-708207000Y586287500D01*
X-708302238Y586192261D01*
X-708349857Y586097023D01*
X-708397476Y585906547D01*
X-708397476Y585763690D01*
X-708349857Y585573214D01*
X-708302238Y585477976D01*
X-708207000Y585382738D01*
X-708064142Y585335119D01*
X-707826047Y585335119D01*
X-709254619Y586335119D02*
X-709064142Y586335119D01*
X-708968904Y586287500D01*
X-708921285Y586239880D01*
X-708826047Y586097023D01*
X-708778428Y585906547D01*
X-708778428Y585525595D01*
X-708826047Y585430357D01*
X-708873666Y585382738D01*
X-708968904Y585335119D01*
X-709159380Y585335119D01*
X-709254619Y585382738D01*
X-709302238Y585430357D01*
X-709349857Y585525595D01*
X-709349857Y585763690D01*
X-709302238Y585858928D01*
X-709254619Y585906547D01*
X-709159380Y585954166D01*
X-708968904Y585954166D01*
X-708873666Y585906547D01*
X-708826047Y585858928D01*
X-708778428Y585763690D01*
%TO.C,LED2*%
X-725637952Y603432619D02*
X-725161761Y603432619D01*
X-725161761Y604432619D01*
X-725971285Y603956428D02*
X-726304619Y603956428D01*
X-726447476Y603432619D02*
X-725971285Y603432619D01*
X-725971285Y604432619D01*
X-726447476Y604432619D01*
X-726876047Y603432619D02*
X-726876047Y604432619D01*
X-727114142Y604432619D01*
X-727257000Y604385000D01*
X-727352238Y604289761D01*
X-727399857Y604194523D01*
X-727447476Y604004047D01*
X-727447476Y603861190D01*
X-727399857Y603670714D01*
X-727352238Y603575476D01*
X-727257000Y603480238D01*
X-727114142Y603432619D01*
X-726876047Y603432619D01*
X-727828428Y604337380D02*
X-727876047Y604385000D01*
X-727971285Y604432619D01*
X-728209380Y604432619D01*
X-728304619Y604385000D01*
X-728352238Y604337380D01*
X-728399857Y604242142D01*
X-728399857Y604146904D01*
X-728352238Y604004047D01*
X-727780809Y603432619D01*
X-728399857Y603432619D01*
%TO.C,LED9*%
X-702777952Y567992619D02*
X-702301761Y567992619D01*
X-702301761Y568992619D01*
X-703111285Y568516428D02*
X-703444619Y568516428D01*
X-703587476Y567992619D02*
X-703111285Y567992619D01*
X-703111285Y568992619D01*
X-703587476Y568992619D01*
X-704016047Y567992619D02*
X-704016047Y568992619D01*
X-704254142Y568992619D01*
X-704397000Y568945000D01*
X-704492238Y568849761D01*
X-704539857Y568754523D01*
X-704587476Y568564047D01*
X-704587476Y568421190D01*
X-704539857Y568230714D01*
X-704492238Y568135476D01*
X-704397000Y568040238D01*
X-704254142Y567992619D01*
X-704016047Y567992619D01*
X-705063666Y567992619D02*
X-705254142Y567992619D01*
X-705349380Y568040238D01*
X-705397000Y568087857D01*
X-705492238Y568230714D01*
X-705539857Y568421190D01*
X-705539857Y568802142D01*
X-705492238Y568897380D01*
X-705444619Y568945000D01*
X-705349380Y568992619D01*
X-705158904Y568992619D01*
X-705063666Y568945000D01*
X-705016047Y568897380D01*
X-704968428Y568802142D01*
X-704968428Y568564047D01*
X-705016047Y568468809D01*
X-705063666Y568421190D01*
X-705158904Y568373571D01*
X-705349380Y568373571D01*
X-705444619Y568421190D01*
X-705492238Y568468809D01*
X-705539857Y568564047D01*
%TO.C,LED8*%
X-721827952Y567992619D02*
X-721351761Y567992619D01*
X-721351761Y568992619D01*
X-722161285Y568516428D02*
X-722494619Y568516428D01*
X-722637476Y567992619D02*
X-722161285Y567992619D01*
X-722161285Y568992619D01*
X-722637476Y568992619D01*
X-723066047Y567992619D02*
X-723066047Y568992619D01*
X-723304142Y568992619D01*
X-723447000Y568945000D01*
X-723542238Y568849761D01*
X-723589857Y568754523D01*
X-723637476Y568564047D01*
X-723637476Y568421190D01*
X-723589857Y568230714D01*
X-723542238Y568135476D01*
X-723447000Y568040238D01*
X-723304142Y567992619D01*
X-723066047Y567992619D01*
X-724208904Y568564047D02*
X-724113666Y568611666D01*
X-724066047Y568659285D01*
X-724018428Y568754523D01*
X-724018428Y568802142D01*
X-724066047Y568897380D01*
X-724113666Y568945000D01*
X-724208904Y568992619D01*
X-724399380Y568992619D01*
X-724494619Y568945000D01*
X-724542238Y568897380D01*
X-724589857Y568802142D01*
X-724589857Y568754523D01*
X-724542238Y568659285D01*
X-724494619Y568611666D01*
X-724399380Y568564047D01*
X-724208904Y568564047D01*
X-724113666Y568516428D01*
X-724066047Y568468809D01*
X-724018428Y568373571D01*
X-724018428Y568183095D01*
X-724066047Y568087857D01*
X-724113666Y568040238D01*
X-724208904Y567992619D01*
X-724399380Y567992619D01*
X-724494619Y568040238D01*
X-724542238Y568087857D01*
X-724589857Y568183095D01*
X-724589857Y568373571D01*
X-724542238Y568468809D01*
X-724494619Y568516428D01*
X-724399380Y568564047D01*
%TO.C,LED3*%
X-706587952Y603432619D02*
X-706111761Y603432619D01*
X-706111761Y604432619D01*
X-706921285Y603956428D02*
X-707254619Y603956428D01*
X-707397476Y603432619D02*
X-706921285Y603432619D01*
X-706921285Y604432619D01*
X-707397476Y604432619D01*
X-707826047Y603432619D02*
X-707826047Y604432619D01*
X-708064142Y604432619D01*
X-708207000Y604385000D01*
X-708302238Y604289761D01*
X-708349857Y604194523D01*
X-708397476Y604004047D01*
X-708397476Y603861190D01*
X-708349857Y603670714D01*
X-708302238Y603575476D01*
X-708207000Y603480238D01*
X-708064142Y603432619D01*
X-707826047Y603432619D01*
X-708730809Y604432619D02*
X-709349857Y604432619D01*
X-709016523Y604051666D01*
X-709159380Y604051666D01*
X-709254619Y604004047D01*
X-709302238Y603956428D01*
X-709349857Y603861190D01*
X-709349857Y603623095D01*
X-709302238Y603527857D01*
X-709254619Y603480238D01*
X-709159380Y603432619D01*
X-708873666Y603432619D01*
X-708778428Y603480238D01*
X-708730809Y603527857D01*
%TO.C,LED7*%
X-740877952Y567992619D02*
X-740401761Y567992619D01*
X-740401761Y568992619D01*
X-741211285Y568516428D02*
X-741544619Y568516428D01*
X-741687476Y567992619D02*
X-741211285Y567992619D01*
X-741211285Y568992619D01*
X-741687476Y568992619D01*
X-742116047Y567992619D02*
X-742116047Y568992619D01*
X-742354142Y568992619D01*
X-742497000Y568945000D01*
X-742592238Y568849761D01*
X-742639857Y568754523D01*
X-742687476Y568564047D01*
X-742687476Y568421190D01*
X-742639857Y568230714D01*
X-742592238Y568135476D01*
X-742497000Y568040238D01*
X-742354142Y567992619D01*
X-742116047Y567992619D01*
X-743020809Y568992619D02*
X-743687476Y568992619D01*
X-743258904Y567992619D01*
%TO.C,LED1*%
X-744687952Y603432619D02*
X-744211761Y603432619D01*
X-744211761Y604432619D01*
X-745021285Y603956428D02*
X-745354619Y603956428D01*
X-745497476Y603432619D02*
X-745021285Y603432619D01*
X-745021285Y604432619D01*
X-745497476Y604432619D01*
X-745926047Y603432619D02*
X-745926047Y604432619D01*
X-746164142Y604432619D01*
X-746307000Y604385000D01*
X-746402238Y604289761D01*
X-746449857Y604194523D01*
X-746497476Y604004047D01*
X-746497476Y603861190D01*
X-746449857Y603670714D01*
X-746402238Y603575476D01*
X-746307000Y603480238D01*
X-746164142Y603432619D01*
X-745926047Y603432619D01*
X-747449857Y603432619D02*
X-746878428Y603432619D01*
X-747164142Y603432619D02*
X-747164142Y604432619D01*
X-747068904Y604289761D01*
X-746973666Y604194523D01*
X-746878428Y604146904D01*
%TO.C,LED4*%
X-744687952Y585335119D02*
X-744211761Y585335119D01*
X-744211761Y586335119D01*
X-745021285Y585858928D02*
X-745354619Y585858928D01*
X-745497476Y585335119D02*
X-745021285Y585335119D01*
X-745021285Y586335119D01*
X-745497476Y586335119D01*
X-745926047Y585335119D02*
X-745926047Y586335119D01*
X-746164142Y586335119D01*
X-746307000Y586287500D01*
X-746402238Y586192261D01*
X-746449857Y586097023D01*
X-746497476Y585906547D01*
X-746497476Y585763690D01*
X-746449857Y585573214D01*
X-746402238Y585477976D01*
X-746307000Y585382738D01*
X-746164142Y585335119D01*
X-745926047Y585335119D01*
X-747354619Y586001785D02*
X-747354619Y585335119D01*
X-747116523Y586382738D02*
X-746878428Y585668452D01*
X-747497476Y585668452D01*
%TO.C,LED5*%
X-725637952Y585335119D02*
X-725161761Y585335119D01*
X-725161761Y586335119D01*
X-725971285Y585858928D02*
X-726304619Y585858928D01*
X-726447476Y585335119D02*
X-725971285Y585335119D01*
X-725971285Y586335119D01*
X-726447476Y586335119D01*
X-726876047Y585335119D02*
X-726876047Y586335119D01*
X-727114142Y586335119D01*
X-727257000Y586287500D01*
X-727352238Y586192261D01*
X-727399857Y586097023D01*
X-727447476Y585906547D01*
X-727447476Y585763690D01*
X-727399857Y585573214D01*
X-727352238Y585477976D01*
X-727257000Y585382738D01*
X-727114142Y585335119D01*
X-726876047Y585335119D01*
X-728352238Y586335119D02*
X-727876047Y586335119D01*
X-727828428Y585858928D01*
X-727876047Y585906547D01*
X-727971285Y585954166D01*
X-728209380Y585954166D01*
X-728304619Y585906547D01*
X-728352238Y585858928D01*
X-728399857Y585763690D01*
X-728399857Y585525595D01*
X-728352238Y585430357D01*
X-728304619Y585382738D01*
X-728209380Y585335119D01*
X-727971285Y585335119D01*
X-727876047Y585382738D01*
X-727828428Y585430357D01*
D12*
%TO.C,LED6*%
X-707707000Y588245000D02*
X-707707000Y588395000D01*
X-706807000Y588245000D02*
X-706807000Y588395000D01*
X-708607000Y588395000D02*
X-708607000Y588245000D01*
X-708607000Y588395000D02*
X-706807000Y588395000D01*
D11*
%TO.C,D3*%
X-699885000Y608805000D02*
X-699885000Y614205000D01*
X-698385000Y608805000D02*
X-699885000Y608805000D01*
X-698385000Y614205000D02*
X-699885000Y614205000D01*
X-699135000Y611105000D02*
X-698635000Y612005000D01*
X-698635000Y612005000D02*
X-699635000Y612005000D01*
X-698385000Y614205000D02*
X-698385000Y608805000D01*
X-698635000Y611005000D02*
X-699635000Y611005000D01*
X-699635000Y612005000D02*
X-699135000Y611105000D01*
D12*
%TO.C,LED2*%
X-728507000Y608470000D02*
X-728882000Y608470000D01*
X-728882000Y608470000D02*
X-728882000Y608170000D01*
X-728882000Y608170000D02*
X-728507000Y608470000D01*
G36*
X-728882000Y608170000D02*
G01*
X-728882000Y608470000D01*
X-728507000Y608470000D01*
X-728882000Y608170000D01*
G37*
X-728882000Y608170000D02*
X-728882000Y608470000D01*
X-728507000Y608470000D01*
X-728882000Y608170000D01*
%TO.C,LED9*%
X-706407000Y568945000D02*
X-706207000Y568945000D01*
X-706207000Y568945000D02*
X-706207000Y568495000D01*
X-706207000Y568495000D02*
X-706407000Y568495000D01*
X-706407000Y568495000D02*
X-706407000Y568945000D01*
G36*
X-706407000Y568945000D02*
G01*
X-706207000Y568945000D01*
X-706207000Y568495000D01*
X-706407000Y568495000D01*
X-706407000Y568945000D01*
G37*
X-709207000Y568945000D02*
X-709007000Y568945000D01*
X-709007000Y568945000D02*
X-709007000Y568495000D01*
X-709007000Y568495000D02*
X-709207000Y568495000D01*
X-709207000Y568495000D02*
X-709207000Y568945000D01*
G36*
X-709207000Y568945000D02*
G01*
X-709007000Y568945000D01*
X-709007000Y568495000D01*
X-709207000Y568495000D01*
X-709207000Y568945000D01*
G37*
D11*
%TO.C,D2*%
X-718685000Y612005000D02*
X-718185000Y611105000D01*
X-718935000Y608805000D02*
X-718935000Y614205000D01*
X-717435000Y614205000D02*
X-718935000Y614205000D01*
X-717435000Y608805000D02*
X-718935000Y608805000D01*
X-717435000Y614205000D02*
X-717435000Y608805000D01*
X-718185000Y611105000D02*
X-717685000Y612005000D01*
X-717685000Y612005000D02*
X-718685000Y612005000D01*
X-717685000Y611005000D02*
X-718685000Y611005000D01*
D12*
%TO.C,LED8*%
X-725457000Y568945000D02*
X-725257000Y568945000D01*
X-725257000Y568945000D02*
X-725257000Y568495000D01*
X-725257000Y568495000D02*
X-725457000Y568495000D01*
X-725457000Y568495000D02*
X-725457000Y568945000D01*
G36*
X-725457000Y568945000D02*
G01*
X-725257000Y568945000D01*
X-725257000Y568495000D01*
X-725457000Y568495000D01*
X-725457000Y568945000D01*
G37*
X-728257000Y568945000D02*
X-728057000Y568945000D01*
X-728057000Y568945000D02*
X-728057000Y568495000D01*
X-728057000Y568495000D02*
X-728257000Y568495000D01*
X-728257000Y568495000D02*
X-728257000Y568945000D01*
G36*
X-728257000Y568945000D02*
G01*
X-728057000Y568945000D01*
X-728057000Y568495000D01*
X-728257000Y568495000D01*
X-728257000Y568945000D01*
G37*
D11*
%TO.C,D4*%
X-737235000Y592055000D02*
X-736735000Y592955000D01*
X-736735000Y591955000D02*
X-737735000Y591955000D01*
X-736485000Y589755000D02*
X-737985000Y589755000D01*
X-736485000Y595155000D02*
X-737985000Y595155000D01*
X-736485000Y595155000D02*
X-736485000Y589755000D01*
X-737735000Y592955000D02*
X-737235000Y592055000D01*
X-737985000Y589755000D02*
X-737985000Y595155000D01*
X-736735000Y592955000D02*
X-737735000Y592955000D01*
%TO.C,D1*%
X-736485000Y614205000D02*
X-737985000Y614205000D01*
X-737235000Y611105000D02*
X-736735000Y612005000D01*
X-737735000Y612005000D02*
X-737235000Y611105000D01*
X-736735000Y611005000D02*
X-737735000Y611005000D01*
X-737985000Y608805000D02*
X-737985000Y614205000D01*
X-736735000Y612005000D02*
X-737735000Y612005000D01*
X-736485000Y608805000D02*
X-737985000Y608805000D01*
X-736485000Y614205000D02*
X-736485000Y608805000D01*
D12*
%TO.C,LED3*%
X-709457000Y608470000D02*
X-709832000Y608470000D01*
X-709832000Y608470000D02*
X-709832000Y608170000D01*
X-709832000Y608170000D02*
X-709457000Y608470000D01*
G36*
X-709832000Y608170000D02*
G01*
X-709832000Y608470000D01*
X-709457000Y608470000D01*
X-709832000Y608170000D01*
G37*
X-709832000Y608170000D02*
X-709832000Y608470000D01*
X-709457000Y608470000D01*
X-709832000Y608170000D01*
D11*
%TO.C,D8*%
X-717435000Y576105000D02*
X-718935000Y576105000D01*
X-718185000Y573005000D02*
X-717685000Y573905000D01*
X-717435000Y570705000D02*
X-718935000Y570705000D01*
X-717685000Y573905000D02*
X-718685000Y573905000D01*
X-718685000Y573905000D02*
X-718185000Y573005000D01*
X-718935000Y570705000D02*
X-718935000Y576105000D01*
X-717685000Y572905000D02*
X-718685000Y572905000D01*
X-717435000Y576105000D02*
X-717435000Y570705000D01*
%TO.C,D7*%
X-737735000Y573905000D02*
X-737235000Y573005000D01*
X-737235000Y573005000D02*
X-736735000Y573905000D01*
X-736485000Y570705000D02*
X-737985000Y570705000D01*
X-736735000Y573905000D02*
X-737735000Y573905000D01*
X-736735000Y572905000D02*
X-737735000Y572905000D01*
X-736485000Y576105000D02*
X-737985000Y576105000D01*
X-736485000Y576105000D02*
X-736485000Y570705000D01*
X-737985000Y570705000D02*
X-737985000Y576105000D01*
D12*
%TO.C,LED7*%
X-747307000Y568945000D02*
X-747107000Y568945000D01*
X-747107000Y568945000D02*
X-747107000Y568495000D01*
X-747107000Y568495000D02*
X-747307000Y568495000D01*
X-747307000Y568495000D02*
X-747307000Y568945000D01*
G36*
X-747307000Y568945000D02*
G01*
X-747107000Y568945000D01*
X-747107000Y568495000D01*
X-747307000Y568495000D01*
X-747307000Y568945000D01*
G37*
X-744507000Y568945000D02*
X-744307000Y568945000D01*
X-744307000Y568945000D02*
X-744307000Y568495000D01*
X-744307000Y568495000D02*
X-744507000Y568495000D01*
X-744507000Y568495000D02*
X-744507000Y568945000D01*
G36*
X-744507000Y568945000D02*
G01*
X-744307000Y568945000D01*
X-744307000Y568495000D01*
X-744507000Y568495000D01*
X-744507000Y568945000D01*
G37*
D11*
%TO.C,D5*%
X-717435000Y595155000D02*
X-717435000Y589755000D01*
X-717685000Y592955000D02*
X-718685000Y592955000D01*
X-717435000Y595155000D02*
X-718935000Y595155000D01*
X-717685000Y591955000D02*
X-718685000Y591955000D01*
X-717435000Y589755000D02*
X-718935000Y589755000D01*
X-718185000Y592055000D02*
X-717685000Y592955000D01*
X-718935000Y589755000D02*
X-718935000Y595155000D01*
X-718685000Y592955000D02*
X-718185000Y592055000D01*
D12*
%TO.C,LED1*%
X-747557000Y608470000D02*
X-747932000Y608470000D01*
X-747932000Y608470000D02*
X-747932000Y608170000D01*
X-747932000Y608170000D02*
X-747557000Y608470000D01*
G36*
X-747932000Y608170000D02*
G01*
X-747932000Y608470000D01*
X-747557000Y608470000D01*
X-747932000Y608170000D01*
G37*
X-747932000Y608170000D02*
X-747932000Y608470000D01*
X-747557000Y608470000D01*
X-747932000Y608170000D01*
%TO.C,LED4*%
X-746707000Y588395000D02*
X-746707000Y588245000D01*
X-746707000Y588395000D02*
X-744907000Y588395000D01*
X-745807000Y588245000D02*
X-745807000Y588395000D01*
X-744907000Y588245000D02*
X-744907000Y588395000D01*
D11*
%TO.C,D9*%
X-698635000Y573905000D02*
X-699635000Y573905000D01*
X-699885000Y570705000D02*
X-699885000Y576105000D01*
X-698635000Y572905000D02*
X-699635000Y572905000D01*
X-698385000Y576105000D02*
X-699885000Y576105000D01*
X-698385000Y570705000D02*
X-699885000Y570705000D01*
X-699635000Y573905000D02*
X-699135000Y573005000D01*
X-699135000Y573005000D02*
X-698635000Y573905000D01*
X-698385000Y576105000D02*
X-698385000Y570705000D01*
D12*
%TO.C,LED5*%
X-727657000Y588395000D02*
X-727657000Y588245000D01*
X-726757000Y588245000D02*
X-726757000Y588395000D01*
X-725857000Y588245000D02*
X-725857000Y588395000D01*
X-727657000Y588395000D02*
X-725857000Y588395000D01*
D11*
%TO.C,D6*%
X-698635000Y592955000D02*
X-699635000Y592955000D01*
X-698385000Y595155000D02*
X-699885000Y595155000D01*
X-699885000Y589755000D02*
X-699885000Y595155000D01*
X-698385000Y595155000D02*
X-698385000Y589755000D01*
X-698385000Y589755000D02*
X-699885000Y589755000D01*
X-699635000Y592955000D02*
X-699135000Y592055000D01*
X-699135000Y592055000D02*
X-698635000Y592955000D01*
X-698635000Y591955000D02*
X-699635000Y591955000D01*
%TD*%
M02*
