%TF.GenerationSoftware,KiCad,Pcbnew,(6.0.1)*%
%TF.CreationDate,2022-06-19T22:09:19+09:00*%
%TF.ProjectId,reverse-mount-led-keboard,72657665-7273-4652-9d6d-6f756e742d6c,rev?*%
%TF.SameCoordinates,Original*%
%TF.FileFunction,Paste,Bot*%
%TF.FilePolarity,Positive*%
%FSLAX46Y46*%
G04 Gerber Fmt 4.6, Leading zero omitted, Abs format (unit mm)*
G04 Created by KiCad (PCBNEW (6.0.1)) date 2022-06-19 22:09:19*
%MOMM*%
%LPD*%
G01*
G04 APERTURE LIST*
%ADD10R,0.700000X0.550000*%
%ADD11R,1.000000X1.400000*%
%ADD12R,1.500000X1.000000*%
%ADD13R,0.800000X0.900000*%
G04 APERTURE END LIST*
D10*
%TO.C,LED6*%
X-706207000Y587095000D03*
X-706207000Y587895000D03*
X-709207000Y587895000D03*
X-709207000Y587095000D03*
%TD*%
D11*
%TO.C,D3*%
X-699135000Y609730000D03*
X-699135000Y613280000D03*
%TD*%
D12*
%TO.C,LED2*%
X-724057000Y605795000D03*
X-724057000Y607295000D03*
X-729457000Y607295000D03*
X-729457000Y605795000D03*
%TD*%
D13*
%TO.C,LED9*%
X-707157000Y569745000D03*
X-708257000Y569745000D03*
X-708257000Y567145000D03*
X-707157000Y567145000D03*
%TD*%
D11*
%TO.C,D2*%
X-718185000Y609730000D03*
X-718185000Y613280000D03*
%TD*%
D13*
%TO.C,LED8*%
X-726207000Y569745000D03*
X-727307000Y569745000D03*
X-727307000Y567145000D03*
X-726207000Y567145000D03*
%TD*%
D11*
%TO.C,D4*%
X-737235000Y590680000D03*
X-737235000Y594230000D03*
%TD*%
%TO.C,D1*%
X-737235000Y609730000D03*
X-737235000Y613280000D03*
%TD*%
D12*
%TO.C,LED3*%
X-705007000Y605795000D03*
X-705007000Y607295000D03*
X-710407000Y607295000D03*
X-710407000Y605795000D03*
%TD*%
D11*
%TO.C,D8*%
X-718185000Y571630000D03*
X-718185000Y575180000D03*
%TD*%
%TO.C,D7*%
X-737235000Y571630000D03*
X-737235000Y575180000D03*
%TD*%
D13*
%TO.C,LED7*%
X-745257000Y569745000D03*
X-746357000Y569745000D03*
X-746357000Y567145000D03*
X-745257000Y567145000D03*
%TD*%
D11*
%TO.C,D5*%
X-718185000Y590680000D03*
X-718185000Y594230000D03*
%TD*%
D12*
%TO.C,LED1*%
X-743107000Y605795000D03*
X-743107000Y607295000D03*
X-748507000Y607295000D03*
X-748507000Y605795000D03*
%TD*%
D10*
%TO.C,LED4*%
X-744307000Y587095000D03*
X-744307000Y587895000D03*
X-747307000Y587895000D03*
X-747307000Y587095000D03*
%TD*%
D11*
%TO.C,D9*%
X-699135000Y571630000D03*
X-699135000Y575180000D03*
%TD*%
D10*
%TO.C,LED5*%
X-725257000Y587095000D03*
X-725257000Y587895000D03*
X-728257000Y587895000D03*
X-728257000Y587095000D03*
%TD*%
D11*
%TO.C,D6*%
X-699135000Y590680000D03*
X-699135000Y594230000D03*
%TD*%
M02*
