M48
; DRILL file {KiCad (6.0.1)} date Sun Jun 19 22:09:24 2022
; FORMAT={-:-/ absolute / metric / decimal}
; #@! TF.CreationDate,2022-06-19T22:09:24+09:00
; #@! TF.GenerationSoftware,Kicad,Pcbnew,(6.0.1)
; #@! TF.FileFunction,Plated,1,2,PTH
FMAT,2
METRIC
; #@! TA.AperFunction,Plated,PTH,ViaDrill
T1C0.400
; #@! TA.AperFunction,Plated,PTH,ComponentDrill
T2C0.800
; #@! TA.AperFunction,Plated,PTH,ComponentDrill
T3C0.813
; #@! TA.AperFunction,Plated,PTH,ComponentDrill
T4C1.300
%
G90
G05
T1
X-757.237Y584.835
X-753.014Y593.408
X-749.863Y607.559
X-749.617Y570.548
X-746.357Y570.8
X-743.345Y587.073
X-730.842Y607.541
X-728.663Y569.595
X-724.27Y587.041
X-711.782Y607.531
X-709.612Y569.595
X-705.95Y586.206
X-703.897Y588.645
X-702.945Y606.742
T3
X-773.419Y616.091
X-773.419Y613.551
X-773.419Y611.011
X-773.419Y608.471
X-773.419Y605.931
X-773.419Y603.391
X-773.419Y600.851
X-773.419Y598.311
X-773.419Y595.771
X-773.419Y593.231
X-773.419Y590.691
X-773.419Y588.151
X-758.199Y616.091
X-758.199Y613.551
X-758.199Y611.011
X-758.199Y608.471
X-758.199Y605.931
X-758.199Y603.391
X-758.199Y600.851
X-758.199Y598.311
X-758.199Y595.771
X-758.199Y593.231
X-758.199Y590.691
X-758.199Y588.151
T4
X-769.06Y575.31
X-762.56Y575.31
T2
X-749.817Y614.045G85X-749.417Y614.045
G05
X-749.817Y594.995G85X-749.417Y594.995
G05
X-749.817Y575.945G85X-749.417Y575.945
G05
X-743.467Y616.585G85X-743.067Y616.585
G05
X-743.467Y597.535G85X-743.067Y597.535
G05
X-743.467Y578.485G85X-743.067Y578.485
G05
X-730.767Y614.045G85X-730.367Y614.045
G05
X-730.767Y594.995G85X-730.367Y594.995
G05
X-730.767Y575.945G85X-730.367Y575.945
G05
X-724.417Y616.585G85X-724.017Y616.585
G05
X-724.417Y597.535G85X-724.017Y597.535
G05
X-724.417Y578.485G85X-724.017Y578.485
G05
X-711.717Y614.045G85X-711.317Y614.045
G05
X-711.717Y594.995G85X-711.317Y594.995
G05
X-711.717Y575.945G85X-711.317Y575.945
G05
X-705.367Y616.585G85X-704.967Y616.585
G05
X-705.367Y597.535G85X-704.967Y597.535
G05
X-705.367Y578.485G85X-704.967Y578.485
G05
T0
M30
