M48
; DRILL file {KiCad (6.0.1)} date Sun Jun 19 22:09:24 2022
; FORMAT={-:-/ absolute / metric / decimal}
; #@! TF.CreationDate,2022-06-19T22:09:24+09:00
; #@! TF.GenerationSoftware,Kicad,Pcbnew,(6.0.1)
; #@! TF.FileFunction,NonPlated,1,2,NPTH
FMAT,2
METRIC
; #@! TA.AperFunction,NonPlated,NPTH,ComponentDrill
T1C1.900
; #@! TA.AperFunction,NonPlated,NPTH,ComponentDrill
T2C4.000
%
G90
G05
T1
X-750.887Y611.505
X-750.887Y592.455
X-750.887Y573.405
X-740.727Y611.505
X-740.727Y592.455
X-740.727Y573.405
X-731.837Y611.505
X-731.837Y592.455
X-731.837Y573.405
X-721.677Y611.505
X-721.677Y592.455
X-721.677Y573.405
X-712.787Y611.505
X-712.787Y592.455
X-712.787Y573.405
X-702.627Y611.505
X-702.627Y592.455
X-702.627Y573.405
T2
X-745.807Y611.505
X-745.807Y592.455
X-745.807Y573.405
X-726.757Y611.505
X-726.757Y592.455
X-726.757Y573.405
X-707.707Y611.505
X-707.707Y592.455
X-707.707Y573.405
T0
M30
