%TF.GenerationSoftware,KiCad,Pcbnew,(6.0.1)*%
%TF.CreationDate,2022-06-19T22:09:19+09:00*%
%TF.ProjectId,reverse-mount-led-keboard,72657665-7273-4652-9d6d-6f756e742d6c,rev?*%
%TF.SameCoordinates,Original*%
%TF.FileFunction,Legend,Top*%
%TF.FilePolarity,Positive*%
%FSLAX46Y46*%
G04 Gerber Fmt 4.6, Leading zero omitted, Abs format (unit mm)*
G04 Created by KiCad (PCBNEW (6.0.1)) date 2022-06-19 22:09:19*
%MOMM*%
%LPD*%
G01*
G04 APERTURE LIST*
%ADD10C,0.125000*%
%ADD11C,0.150000*%
%ADD12O,2.500000X2.000000*%
G04 APERTURE END LIST*
D10*
%TO.C,U1*%
X-764843571Y605709428D02*
X-764747857Y605673714D01*
X-764588333Y605673714D01*
X-764524523Y605709428D01*
X-764492619Y605745142D01*
X-764460714Y605816571D01*
X-764460714Y605888000D01*
X-764492619Y605959428D01*
X-764524523Y605995142D01*
X-764588333Y606030857D01*
X-764715952Y606066571D01*
X-764779761Y606102285D01*
X-764811666Y606138000D01*
X-764843571Y606209428D01*
X-764843571Y606280857D01*
X-764811666Y606352285D01*
X-764779761Y606388000D01*
X-764715952Y606423714D01*
X-764556428Y606423714D01*
X-764460714Y606388000D01*
X-764173571Y605673714D02*
X-764173571Y606423714D01*
X-764014047Y606423714D01*
X-763918333Y606388000D01*
X-763854523Y606316571D01*
X-763822619Y606245142D01*
X-763790714Y606102285D01*
X-763790714Y605995142D01*
X-763822619Y605852285D01*
X-763854523Y605780857D01*
X-763918333Y605709428D01*
X-764014047Y605673714D01*
X-764173571Y605673714D01*
X-763535476Y605888000D02*
X-763216428Y605888000D01*
X-763599285Y605673714D02*
X-763375952Y606423714D01*
X-763152619Y605673714D01*
X-762450714Y606459428D02*
X-763025000Y605495142D01*
X-762227380Y605673714D02*
X-762227380Y606423714D01*
X-762067857Y606423714D01*
X-761972142Y606388000D01*
X-761908333Y606316571D01*
X-761876428Y606245142D01*
X-761844523Y606102285D01*
X-761844523Y605995142D01*
X-761876428Y605852285D01*
X-761908333Y605780857D01*
X-761972142Y605709428D01*
X-762067857Y605673714D01*
X-762227380Y605673714D01*
X-761206428Y605673714D02*
X-761589285Y605673714D01*
X-761397857Y605673714D02*
X-761397857Y606423714D01*
X-761461666Y606316571D01*
X-761525476Y606245142D01*
X-761589285Y606209428D01*
X-760440714Y606459428D02*
X-761015000Y605495142D01*
X-760249285Y606352285D02*
X-760217380Y606388000D01*
X-760153571Y606423714D01*
X-759994047Y606423714D01*
X-759930238Y606388000D01*
X-759898333Y606352285D01*
X-759866428Y606280857D01*
X-759866428Y606209428D01*
X-759898333Y606102285D01*
X-760281190Y605673714D01*
X-759866428Y605673714D01*
X-762046190Y588366571D02*
X-761950476Y588330857D01*
X-761918571Y588295142D01*
X-761886666Y588223714D01*
X-761886666Y588116571D01*
X-761918571Y588045142D01*
X-761950476Y588009428D01*
X-762014285Y587973714D01*
X-762269523Y587973714D01*
X-762269523Y588723714D01*
X-762046190Y588723714D01*
X-761982380Y588688000D01*
X-761950476Y588652285D01*
X-761918571Y588580857D01*
X-761918571Y588509428D01*
X-761950476Y588438000D01*
X-761982380Y588402285D01*
X-762046190Y588366571D01*
X-762269523Y588366571D01*
X-761280476Y588723714D02*
X-761599523Y588723714D01*
X-761631428Y588366571D01*
X-761599523Y588402285D01*
X-761535714Y588438000D01*
X-761376190Y588438000D01*
X-761312380Y588402285D01*
X-761280476Y588366571D01*
X-761248571Y588295142D01*
X-761248571Y588116571D01*
X-761280476Y588045142D01*
X-761312380Y588009428D01*
X-761376190Y587973714D01*
X-761535714Y587973714D01*
X-761599523Y588009428D01*
X-761631428Y588045142D01*
X-760482857Y588759428D02*
X-761057142Y587795142D01*
X-760227619Y587973714D02*
X-760100000Y587973714D01*
X-760036190Y588009428D01*
X-760004285Y588045142D01*
X-759940476Y588152285D01*
X-759908571Y588295142D01*
X-759908571Y588580857D01*
X-759940476Y588652285D01*
X-759972380Y588688000D01*
X-760036190Y588723714D01*
X-760163809Y588723714D01*
X-760227619Y588688000D01*
X-760259523Y588652285D01*
X-760291428Y588580857D01*
X-760291428Y588402285D01*
X-760259523Y588330857D01*
X-760227619Y588295142D01*
X-760163809Y588259428D01*
X-760036190Y588259428D01*
X-759972380Y588295142D01*
X-759940476Y588330857D01*
X-759908571Y588402285D01*
X-771171904Y610673714D02*
X-771395238Y611030857D01*
X-771554761Y610673714D02*
X-771554761Y611423714D01*
X-771299523Y611423714D01*
X-771235714Y611388000D01*
X-771203809Y611352285D01*
X-771171904Y611280857D01*
X-771171904Y611173714D01*
X-771203809Y611102285D01*
X-771235714Y611066571D01*
X-771299523Y611030857D01*
X-771554761Y611030857D01*
X-770916666Y610709428D02*
X-770820952Y610673714D01*
X-770661428Y610673714D01*
X-770597619Y610709428D01*
X-770565714Y610745142D01*
X-770533809Y610816571D01*
X-770533809Y610888000D01*
X-770565714Y610959428D01*
X-770597619Y610995142D01*
X-770661428Y611030857D01*
X-770789047Y611066571D01*
X-770852857Y611102285D01*
X-770884761Y611138000D01*
X-770916666Y611209428D01*
X-770916666Y611280857D01*
X-770884761Y611352285D01*
X-770852857Y611388000D01*
X-770789047Y611423714D01*
X-770629523Y611423714D01*
X-770533809Y611388000D01*
X-770342380Y611423714D02*
X-769959523Y611423714D01*
X-770150952Y610673714D02*
X-770150952Y611423714D01*
X-761365476Y611338000D02*
X-761429285Y611373714D01*
X-761525000Y611373714D01*
X-761620714Y611338000D01*
X-761684523Y611266571D01*
X-761716428Y611195142D01*
X-761748333Y611052285D01*
X-761748333Y610945142D01*
X-761716428Y610802285D01*
X-761684523Y610730857D01*
X-761620714Y610659428D01*
X-761525000Y610623714D01*
X-761461190Y610623714D01*
X-761365476Y610659428D01*
X-761333571Y610695142D01*
X-761333571Y610945142D01*
X-761461190Y610945142D01*
X-761046428Y610623714D02*
X-761046428Y611373714D01*
X-760663571Y610623714D01*
X-760663571Y611373714D01*
X-760344523Y610623714D02*
X-760344523Y611373714D01*
X-760185000Y611373714D01*
X-760089285Y611338000D01*
X-760025476Y611266571D01*
X-759993571Y611195142D01*
X-759961666Y611052285D01*
X-759961666Y610945142D01*
X-759993571Y610802285D01*
X-760025476Y610730857D01*
X-760089285Y610659428D01*
X-760185000Y610623714D01*
X-760344523Y610623714D01*
X-771337619Y587823714D02*
X-771720476Y587823714D01*
X-771529047Y587823714D02*
X-771529047Y588573714D01*
X-771592857Y588466571D01*
X-771656666Y588395142D01*
X-771720476Y588359428D01*
X-770922857Y588573714D02*
X-770859047Y588573714D01*
X-770795238Y588538000D01*
X-770763333Y588502285D01*
X-770731428Y588430857D01*
X-770699523Y588288000D01*
X-770699523Y588109428D01*
X-770731428Y587966571D01*
X-770763333Y587895142D01*
X-770795238Y587859428D01*
X-770859047Y587823714D01*
X-770922857Y587823714D01*
X-770986666Y587859428D01*
X-771018571Y587895142D01*
X-771050476Y587966571D01*
X-771082380Y588109428D01*
X-771082380Y588288000D01*
X-771050476Y588430857D01*
X-771018571Y588502285D01*
X-770986666Y588538000D01*
X-770922857Y588573714D01*
X-769933809Y588609428D02*
X-770508095Y587645142D01*
X-769487142Y588216571D02*
X-769391428Y588180857D01*
X-769359523Y588145142D01*
X-769327619Y588073714D01*
X-769327619Y587966571D01*
X-769359523Y587895142D01*
X-769391428Y587859428D01*
X-769455238Y587823714D01*
X-769710476Y587823714D01*
X-769710476Y588573714D01*
X-769487142Y588573714D01*
X-769423333Y588538000D01*
X-769391428Y588502285D01*
X-769359523Y588430857D01*
X-769359523Y588359428D01*
X-769391428Y588288000D01*
X-769423333Y588252285D01*
X-769487142Y588216571D01*
X-769710476Y588216571D01*
X-768753333Y588573714D02*
X-768880952Y588573714D01*
X-768944761Y588538000D01*
X-768976666Y588502285D01*
X-769040476Y588395142D01*
X-769072380Y588252285D01*
X-769072380Y587966571D01*
X-769040476Y587895142D01*
X-769008571Y587859428D01*
X-768944761Y587823714D01*
X-768817142Y587823714D01*
X-768753333Y587859428D01*
X-768721428Y587895142D01*
X-768689523Y587966571D01*
X-768689523Y588145142D01*
X-768721428Y588216571D01*
X-768753333Y588252285D01*
X-768817142Y588288000D01*
X-768944761Y588288000D01*
X-769008571Y588252285D01*
X-769040476Y588216571D01*
X-769072380Y588145142D01*
X-771267619Y615773714D02*
X-771490952Y616130857D01*
X-771650476Y615773714D02*
X-771650476Y616523714D01*
X-771395238Y616523714D01*
X-771331428Y616488000D01*
X-771299523Y616452285D01*
X-771267619Y616380857D01*
X-771267619Y616273714D01*
X-771299523Y616202285D01*
X-771331428Y616166571D01*
X-771395238Y616130857D01*
X-771650476Y616130857D01*
X-771012380Y615988000D02*
X-770693333Y615988000D01*
X-771076190Y615773714D02*
X-770852857Y616523714D01*
X-770629523Y615773714D01*
X-770470000Y616523714D02*
X-770310476Y615773714D01*
X-770182857Y616309428D01*
X-770055238Y615773714D01*
X-769895714Y616523714D01*
X-771640714Y605738000D02*
X-771321666Y605738000D01*
X-771704523Y605523714D02*
X-771481190Y606273714D01*
X-771257857Y605523714D01*
X-771098333Y606273714D02*
X-770683571Y606273714D01*
X-770906904Y605988000D01*
X-770811190Y605988000D01*
X-770747380Y605952285D01*
X-770715476Y605916571D01*
X-770683571Y605845142D01*
X-770683571Y605666571D01*
X-770715476Y605595142D01*
X-770747380Y605559428D01*
X-770811190Y605523714D01*
X-771002619Y605523714D01*
X-771066428Y605559428D01*
X-771098333Y605595142D01*
X-769917857Y606309428D02*
X-770492142Y605345142D01*
X-769471190Y605916571D02*
X-769694523Y605916571D01*
X-769694523Y605523714D02*
X-769694523Y606273714D01*
X-769375476Y606273714D01*
X-768833095Y606023714D02*
X-768833095Y605523714D01*
X-768992619Y606309428D02*
X-769152142Y605773714D01*
X-768737380Y605773714D01*
X-771640714Y600738000D02*
X-771321666Y600738000D01*
X-771704523Y600523714D02*
X-771481190Y601273714D01*
X-771257857Y600523714D01*
X-770683571Y600523714D02*
X-771066428Y600523714D01*
X-770875000Y600523714D02*
X-770875000Y601273714D01*
X-770938809Y601166571D01*
X-771002619Y601095142D01*
X-771066428Y601059428D01*
X-769917857Y601309428D02*
X-770492142Y600345142D01*
X-769471190Y600916571D02*
X-769694523Y600916571D01*
X-769694523Y600523714D02*
X-769694523Y601273714D01*
X-769375476Y601273714D01*
X-768833095Y601273714D02*
X-768960714Y601273714D01*
X-769024523Y601238000D01*
X-769056428Y601202285D01*
X-769120238Y601095142D01*
X-769152142Y600952285D01*
X-769152142Y600666571D01*
X-769120238Y600595142D01*
X-769088333Y600559428D01*
X-769024523Y600523714D01*
X-768896904Y600523714D01*
X-768833095Y600559428D01*
X-768801190Y600595142D01*
X-768769285Y600666571D01*
X-768769285Y600845142D01*
X-768801190Y600916571D01*
X-768833095Y600952285D01*
X-768896904Y600988000D01*
X-769024523Y600988000D01*
X-769088333Y600952285D01*
X-769120238Y600916571D01*
X-769152142Y600845142D01*
X-771315476Y613938000D02*
X-771379285Y613973714D01*
X-771475000Y613973714D01*
X-771570714Y613938000D01*
X-771634523Y613866571D01*
X-771666428Y613795142D01*
X-771698333Y613652285D01*
X-771698333Y613545142D01*
X-771666428Y613402285D01*
X-771634523Y613330857D01*
X-771570714Y613259428D01*
X-771475000Y613223714D01*
X-771411190Y613223714D01*
X-771315476Y613259428D01*
X-771283571Y613295142D01*
X-771283571Y613545142D01*
X-771411190Y613545142D01*
X-770996428Y613223714D02*
X-770996428Y613973714D01*
X-770613571Y613223714D01*
X-770613571Y613973714D01*
X-770294523Y613223714D02*
X-770294523Y613973714D01*
X-770135000Y613973714D01*
X-770039285Y613938000D01*
X-769975476Y613866571D01*
X-769943571Y613795142D01*
X-769911666Y613652285D01*
X-769911666Y613545142D01*
X-769943571Y613402285D01*
X-769975476Y613330857D01*
X-770039285Y613259428D01*
X-770135000Y613223714D01*
X-770294523Y613223714D01*
X-762269523Y600673714D02*
X-762269523Y601423714D01*
X-762110000Y601423714D01*
X-762014285Y601388000D01*
X-761950476Y601316571D01*
X-761918571Y601245142D01*
X-761886666Y601102285D01*
X-761886666Y600995142D01*
X-761918571Y600852285D01*
X-761950476Y600780857D01*
X-762014285Y600709428D01*
X-762110000Y600673714D01*
X-762269523Y600673714D01*
X-761312380Y601173714D02*
X-761312380Y600673714D01*
X-761471904Y601459428D02*
X-761631428Y600923714D01*
X-761216666Y600923714D01*
X-760482857Y601459428D02*
X-761057142Y600495142D01*
X-759972380Y601173714D02*
X-759972380Y600673714D01*
X-760131904Y601459428D02*
X-760291428Y600923714D01*
X-759876666Y600923714D01*
X-761886666Y598195142D02*
X-761918571Y598159428D01*
X-762014285Y598123714D01*
X-762078095Y598123714D01*
X-762173809Y598159428D01*
X-762237619Y598230857D01*
X-762269523Y598302285D01*
X-762301428Y598445142D01*
X-762301428Y598552285D01*
X-762269523Y598695142D01*
X-762237619Y598766571D01*
X-762173809Y598838000D01*
X-762078095Y598873714D01*
X-762014285Y598873714D01*
X-761918571Y598838000D01*
X-761886666Y598802285D01*
X-761312380Y598873714D02*
X-761440000Y598873714D01*
X-761503809Y598838000D01*
X-761535714Y598802285D01*
X-761599523Y598695142D01*
X-761631428Y598552285D01*
X-761631428Y598266571D01*
X-761599523Y598195142D01*
X-761567619Y598159428D01*
X-761503809Y598123714D01*
X-761376190Y598123714D01*
X-761312380Y598159428D01*
X-761280476Y598195142D01*
X-761248571Y598266571D01*
X-761248571Y598445142D01*
X-761280476Y598516571D01*
X-761312380Y598552285D01*
X-761376190Y598588000D01*
X-761503809Y598588000D01*
X-761567619Y598552285D01*
X-761599523Y598516571D01*
X-761631428Y598445142D01*
X-760482857Y598909428D02*
X-761057142Y597945142D01*
X-759940476Y598873714D02*
X-760259523Y598873714D01*
X-760291428Y598516571D01*
X-760259523Y598552285D01*
X-760195714Y598588000D01*
X-760036190Y598588000D01*
X-759972380Y598552285D01*
X-759940476Y598516571D01*
X-759908571Y598445142D01*
X-759908571Y598266571D01*
X-759940476Y598195142D01*
X-759972380Y598159428D01*
X-760036190Y598123714D01*
X-760195714Y598123714D01*
X-760259523Y598159428D01*
X-760291428Y598195142D01*
X-764827619Y603209428D02*
X-764731904Y603173714D01*
X-764572380Y603173714D01*
X-764508571Y603209428D01*
X-764476666Y603245142D01*
X-764444761Y603316571D01*
X-764444761Y603388000D01*
X-764476666Y603459428D01*
X-764508571Y603495142D01*
X-764572380Y603530857D01*
X-764700000Y603566571D01*
X-764763809Y603602285D01*
X-764795714Y603638000D01*
X-764827619Y603709428D01*
X-764827619Y603780857D01*
X-764795714Y603852285D01*
X-764763809Y603888000D01*
X-764700000Y603923714D01*
X-764540476Y603923714D01*
X-764444761Y603888000D01*
X-763774761Y603245142D02*
X-763806666Y603209428D01*
X-763902380Y603173714D01*
X-763966190Y603173714D01*
X-764061904Y603209428D01*
X-764125714Y603280857D01*
X-764157619Y603352285D01*
X-764189523Y603495142D01*
X-764189523Y603602285D01*
X-764157619Y603745142D01*
X-764125714Y603816571D01*
X-764061904Y603888000D01*
X-763966190Y603923714D01*
X-763902380Y603923714D01*
X-763806666Y603888000D01*
X-763774761Y603852285D01*
X-763168571Y603173714D02*
X-763487619Y603173714D01*
X-763487619Y603923714D01*
X-762466666Y603959428D02*
X-763040952Y602995142D01*
X-762243333Y603173714D02*
X-762243333Y603923714D01*
X-762083809Y603923714D01*
X-761988095Y603888000D01*
X-761924285Y603816571D01*
X-761892380Y603745142D01*
X-761860476Y603602285D01*
X-761860476Y603495142D01*
X-761892380Y603352285D01*
X-761924285Y603280857D01*
X-761988095Y603209428D01*
X-762083809Y603173714D01*
X-762243333Y603173714D01*
X-761445714Y603923714D02*
X-761381904Y603923714D01*
X-761318095Y603888000D01*
X-761286190Y603852285D01*
X-761254285Y603780857D01*
X-761222380Y603638000D01*
X-761222380Y603459428D01*
X-761254285Y603316571D01*
X-761286190Y603245142D01*
X-761318095Y603209428D01*
X-761381904Y603173714D01*
X-761445714Y603173714D01*
X-761509523Y603209428D01*
X-761541428Y603245142D01*
X-761573333Y603316571D01*
X-761605238Y603459428D01*
X-761605238Y603638000D01*
X-761573333Y603780857D01*
X-761541428Y603852285D01*
X-761509523Y603888000D01*
X-761445714Y603923714D01*
X-760456666Y603959428D02*
X-761030952Y602995142D01*
X-760297142Y603923714D02*
X-759882380Y603923714D01*
X-760105714Y603638000D01*
X-760010000Y603638000D01*
X-759946190Y603602285D01*
X-759914285Y603566571D01*
X-759882380Y603495142D01*
X-759882380Y603316571D01*
X-759914285Y603245142D01*
X-759946190Y603209428D01*
X-760010000Y603173714D01*
X-760201428Y603173714D01*
X-760265238Y603209428D01*
X-760297142Y603245142D01*
X-771337619Y590323714D02*
X-771720476Y590323714D01*
X-771529047Y590323714D02*
X-771529047Y591073714D01*
X-771592857Y590966571D01*
X-771656666Y590895142D01*
X-771720476Y590859428D01*
X-770763333Y591073714D02*
X-770890952Y591073714D01*
X-770954761Y591038000D01*
X-770986666Y591002285D01*
X-771050476Y590895142D01*
X-771082380Y590752285D01*
X-771082380Y590466571D01*
X-771050476Y590395142D01*
X-771018571Y590359428D01*
X-770954761Y590323714D01*
X-770827142Y590323714D01*
X-770763333Y590359428D01*
X-770731428Y590395142D01*
X-770699523Y590466571D01*
X-770699523Y590645142D01*
X-770731428Y590716571D01*
X-770763333Y590752285D01*
X-770827142Y590788000D01*
X-770954761Y590788000D01*
X-771018571Y590752285D01*
X-771050476Y590716571D01*
X-771082380Y590645142D01*
X-769933809Y591109428D02*
X-770508095Y590145142D01*
X-769487142Y590716571D02*
X-769391428Y590680857D01*
X-769359523Y590645142D01*
X-769327619Y590573714D01*
X-769327619Y590466571D01*
X-769359523Y590395142D01*
X-769391428Y590359428D01*
X-769455238Y590323714D01*
X-769710476Y590323714D01*
X-769710476Y591073714D01*
X-769487142Y591073714D01*
X-769423333Y591038000D01*
X-769391428Y591002285D01*
X-769359523Y590930857D01*
X-769359523Y590859428D01*
X-769391428Y590788000D01*
X-769423333Y590752285D01*
X-769487142Y590716571D01*
X-769710476Y590716571D01*
X-769072380Y591002285D02*
X-769040476Y591038000D01*
X-768976666Y591073714D01*
X-768817142Y591073714D01*
X-768753333Y591038000D01*
X-768721428Y591002285D01*
X-768689523Y590930857D01*
X-768689523Y590859428D01*
X-768721428Y590752285D01*
X-769104285Y590323714D01*
X-768689523Y590323714D01*
X-762237619Y593416571D02*
X-762014285Y593416571D01*
X-761918571Y593023714D02*
X-762237619Y593023714D01*
X-762237619Y593773714D01*
X-761918571Y593773714D01*
X-761344285Y593773714D02*
X-761471904Y593773714D01*
X-761535714Y593738000D01*
X-761567619Y593702285D01*
X-761631428Y593595142D01*
X-761663333Y593452285D01*
X-761663333Y593166571D01*
X-761631428Y593095142D01*
X-761599523Y593059428D01*
X-761535714Y593023714D01*
X-761408095Y593023714D01*
X-761344285Y593059428D01*
X-761312380Y593095142D01*
X-761280476Y593166571D01*
X-761280476Y593345142D01*
X-761312380Y593416571D01*
X-761344285Y593452285D01*
X-761408095Y593488000D01*
X-761535714Y593488000D01*
X-761599523Y593452285D01*
X-761631428Y593416571D01*
X-761663333Y593345142D01*
X-760514761Y593809428D02*
X-761089047Y592845142D01*
X-760355238Y593773714D02*
X-759908571Y593773714D01*
X-760195714Y593023714D01*
X-762046190Y590866571D02*
X-761950476Y590830857D01*
X-761918571Y590795142D01*
X-761886666Y590723714D01*
X-761886666Y590616571D01*
X-761918571Y590545142D01*
X-761950476Y590509428D01*
X-762014285Y590473714D01*
X-762269523Y590473714D01*
X-762269523Y591223714D01*
X-762046190Y591223714D01*
X-761982380Y591188000D01*
X-761950476Y591152285D01*
X-761918571Y591080857D01*
X-761918571Y591009428D01*
X-761950476Y590938000D01*
X-761982380Y590902285D01*
X-762046190Y590866571D01*
X-762269523Y590866571D01*
X-761312380Y590973714D02*
X-761312380Y590473714D01*
X-761471904Y591259428D02*
X-761631428Y590723714D01*
X-761216666Y590723714D01*
X-760482857Y591259428D02*
X-761057142Y590295142D01*
X-760163809Y590902285D02*
X-760227619Y590938000D01*
X-760259523Y590973714D01*
X-760291428Y591045142D01*
X-760291428Y591080857D01*
X-760259523Y591152285D01*
X-760227619Y591188000D01*
X-760163809Y591223714D01*
X-760036190Y591223714D01*
X-759972380Y591188000D01*
X-759940476Y591152285D01*
X-759908571Y591080857D01*
X-759908571Y591045142D01*
X-759940476Y590973714D01*
X-759972380Y590938000D01*
X-760036190Y590902285D01*
X-760163809Y590902285D01*
X-760227619Y590866571D01*
X-760259523Y590830857D01*
X-760291428Y590759428D01*
X-760291428Y590616571D01*
X-760259523Y590545142D01*
X-760227619Y590509428D01*
X-760163809Y590473714D01*
X-760036190Y590473714D01*
X-759972380Y590509428D01*
X-759940476Y590545142D01*
X-759908571Y590616571D01*
X-759908571Y590759428D01*
X-759940476Y590830857D01*
X-759972380Y590866571D01*
X-760036190Y590902285D01*
X-762269523Y595573714D02*
X-762269523Y596323714D01*
X-762110000Y596323714D01*
X-762014285Y596288000D01*
X-761950476Y596216571D01*
X-761918571Y596145142D01*
X-761886666Y596002285D01*
X-761886666Y595895142D01*
X-761918571Y595752285D01*
X-761950476Y595680857D01*
X-762014285Y595609428D01*
X-762110000Y595573714D01*
X-762269523Y595573714D01*
X-761663333Y596323714D02*
X-761216666Y596323714D01*
X-761503809Y595573714D01*
X-760482857Y596359428D02*
X-761057142Y595395142D01*
X-759972380Y596323714D02*
X-760100000Y596323714D01*
X-760163809Y596288000D01*
X-760195714Y596252285D01*
X-760259523Y596145142D01*
X-760291428Y596002285D01*
X-760291428Y595716571D01*
X-760259523Y595645142D01*
X-760227619Y595609428D01*
X-760163809Y595573714D01*
X-760036190Y595573714D01*
X-759972380Y595609428D01*
X-759940476Y595645142D01*
X-759908571Y595716571D01*
X-759908571Y595895142D01*
X-759940476Y595966571D01*
X-759972380Y596002285D01*
X-760036190Y596038000D01*
X-760163809Y596038000D01*
X-760227619Y596002285D01*
X-760259523Y595966571D01*
X-760291428Y595895142D01*
X-771698333Y608973714D02*
X-771475000Y608223714D01*
X-771251666Y608973714D01*
X-770645476Y608295142D02*
X-770677380Y608259428D01*
X-770773095Y608223714D01*
X-770836904Y608223714D01*
X-770932619Y608259428D01*
X-770996428Y608330857D01*
X-771028333Y608402285D01*
X-771060238Y608545142D01*
X-771060238Y608652285D01*
X-771028333Y608795142D01*
X-770996428Y608866571D01*
X-770932619Y608938000D01*
X-770836904Y608973714D01*
X-770773095Y608973714D01*
X-770677380Y608938000D01*
X-770645476Y608902285D01*
X-769975476Y608295142D02*
X-770007380Y608259428D01*
X-770103095Y608223714D01*
X-770166904Y608223714D01*
X-770262619Y608259428D01*
X-770326428Y608330857D01*
X-770358333Y608402285D01*
X-770390238Y608545142D01*
X-770390238Y608652285D01*
X-770358333Y608795142D01*
X-770326428Y608866571D01*
X-770262619Y608938000D01*
X-770166904Y608973714D01*
X-770103095Y608973714D01*
X-770007380Y608938000D01*
X-769975476Y608902285D01*
X-761365476Y608888000D02*
X-761429285Y608923714D01*
X-761525000Y608923714D01*
X-761620714Y608888000D01*
X-761684523Y608816571D01*
X-761716428Y608745142D01*
X-761748333Y608602285D01*
X-761748333Y608495142D01*
X-761716428Y608352285D01*
X-761684523Y608280857D01*
X-761620714Y608209428D01*
X-761525000Y608173714D01*
X-761461190Y608173714D01*
X-761365476Y608209428D01*
X-761333571Y608245142D01*
X-761333571Y608495142D01*
X-761461190Y608495142D01*
X-761046428Y608173714D02*
X-761046428Y608923714D01*
X-760663571Y608173714D01*
X-760663571Y608923714D01*
X-760344523Y608173714D02*
X-760344523Y608923714D01*
X-760185000Y608923714D01*
X-760089285Y608888000D01*
X-760025476Y608816571D01*
X-759993571Y608745142D01*
X-759961666Y608602285D01*
X-759961666Y608495142D01*
X-759993571Y608352285D01*
X-760025476Y608280857D01*
X-760089285Y608209428D01*
X-760185000Y608173714D01*
X-760344523Y608173714D01*
X-763393809Y615723714D02*
X-763393809Y616473714D01*
X-763234285Y616473714D01*
X-763138571Y616438000D01*
X-763074761Y616366571D01*
X-763042857Y616295142D01*
X-763010952Y616152285D01*
X-763010952Y616045142D01*
X-763042857Y615902285D01*
X-763074761Y615830857D01*
X-763138571Y615759428D01*
X-763234285Y615723714D01*
X-763393809Y615723714D01*
X-762787619Y616473714D02*
X-762372857Y616473714D01*
X-762596190Y616188000D01*
X-762500476Y616188000D01*
X-762436666Y616152285D01*
X-762404761Y616116571D01*
X-762372857Y616045142D01*
X-762372857Y615866571D01*
X-762404761Y615795142D01*
X-762436666Y615759428D01*
X-762500476Y615723714D01*
X-762691904Y615723714D01*
X-762755714Y615759428D01*
X-762787619Y615795142D01*
X-761607142Y616509428D02*
X-762181428Y615545142D01*
X-761479523Y616473714D02*
X-761096666Y616473714D01*
X-761288095Y615723714D02*
X-761288095Y616473714D01*
X-760937142Y616473714D02*
X-760490476Y615723714D01*
X-760490476Y616473714D02*
X-760937142Y615723714D01*
X-760107619Y616473714D02*
X-760043809Y616473714D01*
X-759980000Y616438000D01*
X-759948095Y616402285D01*
X-759916190Y616330857D01*
X-759884285Y616188000D01*
X-759884285Y616009428D01*
X-759916190Y615866571D01*
X-759948095Y615795142D01*
X-759980000Y615759428D01*
X-760043809Y615723714D01*
X-760107619Y615723714D01*
X-760171428Y615759428D01*
X-760203333Y615795142D01*
X-760235238Y615866571D01*
X-760267142Y616009428D01*
X-760267142Y616188000D01*
X-760235238Y616330857D01*
X-760203333Y616402285D01*
X-760171428Y616438000D01*
X-760107619Y616473714D01*
X-771640714Y598188000D02*
X-771321666Y598188000D01*
X-771704523Y597973714D02*
X-771481190Y598723714D01*
X-771257857Y597973714D01*
X-770906904Y598723714D02*
X-770843095Y598723714D01*
X-770779285Y598688000D01*
X-770747380Y598652285D01*
X-770715476Y598580857D01*
X-770683571Y598438000D01*
X-770683571Y598259428D01*
X-770715476Y598116571D01*
X-770747380Y598045142D01*
X-770779285Y598009428D01*
X-770843095Y597973714D01*
X-770906904Y597973714D01*
X-770970714Y598009428D01*
X-771002619Y598045142D01*
X-771034523Y598116571D01*
X-771066428Y598259428D01*
X-771066428Y598438000D01*
X-771034523Y598580857D01*
X-771002619Y598652285D01*
X-770970714Y598688000D01*
X-770906904Y598723714D01*
X-769917857Y598759428D02*
X-770492142Y597795142D01*
X-769471190Y598366571D02*
X-769694523Y598366571D01*
X-769694523Y597973714D02*
X-769694523Y598723714D01*
X-769375476Y598723714D01*
X-769184047Y598723714D02*
X-768737380Y598723714D01*
X-769024523Y597973714D01*
X-763473571Y613173714D02*
X-763473571Y613923714D01*
X-763314047Y613923714D01*
X-763218333Y613888000D01*
X-763154523Y613816571D01*
X-763122619Y613745142D01*
X-763090714Y613602285D01*
X-763090714Y613495142D01*
X-763122619Y613352285D01*
X-763154523Y613280857D01*
X-763218333Y613209428D01*
X-763314047Y613173714D01*
X-763473571Y613173714D01*
X-762835476Y613852285D02*
X-762803571Y613888000D01*
X-762739761Y613923714D01*
X-762580238Y613923714D01*
X-762516428Y613888000D01*
X-762484523Y613852285D01*
X-762452619Y613780857D01*
X-762452619Y613709428D01*
X-762484523Y613602285D01*
X-762867380Y613173714D01*
X-762452619Y613173714D01*
X-761686904Y613959428D02*
X-762261190Y612995142D01*
X-761080714Y613173714D02*
X-761304047Y613530857D01*
X-761463571Y613173714D02*
X-761463571Y613923714D01*
X-761208333Y613923714D01*
X-761144523Y613888000D01*
X-761112619Y613852285D01*
X-761080714Y613780857D01*
X-761080714Y613673714D01*
X-761112619Y613602285D01*
X-761144523Y613566571D01*
X-761208333Y613530857D01*
X-761463571Y613530857D01*
X-760857380Y613923714D02*
X-760410714Y613173714D01*
X-760410714Y613923714D02*
X-760857380Y613173714D01*
X-759804523Y613173714D02*
X-760187380Y613173714D01*
X-759995952Y613173714D02*
X-759995952Y613923714D01*
X-760059761Y613816571D01*
X-760123571Y613745142D01*
X-760187380Y613709428D01*
X-771640714Y603238000D02*
X-771321666Y603238000D01*
X-771704523Y603023714D02*
X-771481190Y603773714D01*
X-771257857Y603023714D01*
X-771066428Y603702285D02*
X-771034523Y603738000D01*
X-770970714Y603773714D01*
X-770811190Y603773714D01*
X-770747380Y603738000D01*
X-770715476Y603702285D01*
X-770683571Y603630857D01*
X-770683571Y603559428D01*
X-770715476Y603452285D01*
X-771098333Y603023714D01*
X-770683571Y603023714D01*
X-769917857Y603809428D02*
X-770492142Y602845142D01*
X-769471190Y603416571D02*
X-769694523Y603416571D01*
X-769694523Y603023714D02*
X-769694523Y603773714D01*
X-769375476Y603773714D01*
X-768801190Y603773714D02*
X-769120238Y603773714D01*
X-769152142Y603416571D01*
X-769120238Y603452285D01*
X-769056428Y603488000D01*
X-768896904Y603488000D01*
X-768833095Y603452285D01*
X-768801190Y603416571D01*
X-768769285Y603345142D01*
X-768769285Y603166571D01*
X-768801190Y603095142D01*
X-768833095Y603059428D01*
X-768896904Y603023714D01*
X-769056428Y603023714D01*
X-769120238Y603059428D01*
X-769152142Y603095142D01*
X-771337619Y595423714D02*
X-771720476Y595423714D01*
X-771529047Y595423714D02*
X-771529047Y596173714D01*
X-771592857Y596066571D01*
X-771656666Y595995142D01*
X-771720476Y595959428D01*
X-770731428Y596173714D02*
X-771050476Y596173714D01*
X-771082380Y595816571D01*
X-771050476Y595852285D01*
X-770986666Y595888000D01*
X-770827142Y595888000D01*
X-770763333Y595852285D01*
X-770731428Y595816571D01*
X-770699523Y595745142D01*
X-770699523Y595566571D01*
X-770731428Y595495142D01*
X-770763333Y595459428D01*
X-770827142Y595423714D01*
X-770986666Y595423714D01*
X-771050476Y595459428D01*
X-771082380Y595495142D01*
X-769933809Y596209428D02*
X-770508095Y595245142D01*
X-769487142Y595816571D02*
X-769391428Y595780857D01*
X-769359523Y595745142D01*
X-769327619Y595673714D01*
X-769327619Y595566571D01*
X-769359523Y595495142D01*
X-769391428Y595459428D01*
X-769455238Y595423714D01*
X-769710476Y595423714D01*
X-769710476Y596173714D01*
X-769487142Y596173714D01*
X-769423333Y596138000D01*
X-769391428Y596102285D01*
X-769359523Y596030857D01*
X-769359523Y595959428D01*
X-769391428Y595888000D01*
X-769423333Y595852285D01*
X-769487142Y595816571D01*
X-769710476Y595816571D01*
X-768689523Y595423714D02*
X-769072380Y595423714D01*
X-768880952Y595423714D02*
X-768880952Y596173714D01*
X-768944761Y596066571D01*
X-769008571Y595995142D01*
X-769072380Y595959428D01*
X-771337619Y592873714D02*
X-771720476Y592873714D01*
X-771529047Y592873714D02*
X-771529047Y593623714D01*
X-771592857Y593516571D01*
X-771656666Y593445142D01*
X-771720476Y593409428D01*
X-770763333Y593373714D02*
X-770763333Y592873714D01*
X-770922857Y593659428D02*
X-771082380Y593123714D01*
X-770667619Y593123714D01*
X-769933809Y593659428D02*
X-770508095Y592695142D01*
X-769487142Y593266571D02*
X-769391428Y593230857D01*
X-769359523Y593195142D01*
X-769327619Y593123714D01*
X-769327619Y593016571D01*
X-769359523Y592945142D01*
X-769391428Y592909428D01*
X-769455238Y592873714D01*
X-769710476Y592873714D01*
X-769710476Y593623714D01*
X-769487142Y593623714D01*
X-769423333Y593588000D01*
X-769391428Y593552285D01*
X-769359523Y593480857D01*
X-769359523Y593409428D01*
X-769391428Y593338000D01*
X-769423333Y593302285D01*
X-769487142Y593266571D01*
X-769710476Y593266571D01*
X-769104285Y593623714D02*
X-768689523Y593623714D01*
X-768912857Y593338000D01*
X-768817142Y593338000D01*
X-768753333Y593302285D01*
X-768721428Y593266571D01*
X-768689523Y593195142D01*
X-768689523Y593016571D01*
X-768721428Y592945142D01*
X-768753333Y592909428D01*
X-768817142Y592873714D01*
X-769008571Y592873714D01*
X-769072380Y592909428D01*
X-769104285Y592945142D01*
D11*
%TO.C,SW10*%
X-767262380Y574857619D02*
X-767595714Y575333809D01*
X-767833809Y574857619D02*
X-767833809Y575857619D01*
X-767452857Y575857619D01*
X-767357619Y575810000D01*
X-767310000Y575762380D01*
X-767262380Y575667142D01*
X-767262380Y575524285D01*
X-767310000Y575429047D01*
X-767357619Y575381428D01*
X-767452857Y575333809D01*
X-767833809Y575333809D01*
X-766833809Y575381428D02*
X-766500476Y575381428D01*
X-766357619Y574857619D02*
X-766833809Y574857619D01*
X-766833809Y575857619D01*
X-766357619Y575857619D01*
X-765976666Y574905238D02*
X-765833809Y574857619D01*
X-765595714Y574857619D01*
X-765500476Y574905238D01*
X-765452857Y574952857D01*
X-765405238Y575048095D01*
X-765405238Y575143333D01*
X-765452857Y575238571D01*
X-765500476Y575286190D01*
X-765595714Y575333809D01*
X-765786190Y575381428D01*
X-765881428Y575429047D01*
X-765929047Y575476666D01*
X-765976666Y575571904D01*
X-765976666Y575667142D01*
X-765929047Y575762380D01*
X-765881428Y575810000D01*
X-765786190Y575857619D01*
X-765548095Y575857619D01*
X-765405238Y575810000D01*
X-764976666Y575381428D02*
X-764643333Y575381428D01*
X-764500476Y574857619D02*
X-764976666Y574857619D01*
X-764976666Y575857619D01*
X-764500476Y575857619D01*
X-764214761Y575857619D02*
X-763643333Y575857619D01*
X-763929047Y574857619D02*
X-763929047Y575857619D01*
%TO.C,U1*%
X-766060000Y622163000D02*
X-765560000Y622163000D01*
X-774560000Y587013000D02*
X-773710000Y587013000D01*
X-765960000Y622013000D02*
X-765660000Y622013000D01*
X-757060000Y617213000D02*
X-757860000Y617213000D01*
X-769560000Y621513000D02*
X-762060000Y621513000D01*
X-762060000Y621513000D02*
X-762060000Y622813000D01*
X-762060000Y622813000D02*
X-769560000Y622813000D01*
X-774560000Y617213000D02*
X-773710000Y617213000D01*
X-766160000Y622313000D02*
X-765460000Y622313000D01*
X-765810000Y621813000D02*
X-766310000Y622463000D01*
X-769560000Y622813000D02*
X-769560000Y621513000D01*
X-757060000Y617213000D02*
X-757060000Y616363000D01*
X-774560000Y587913000D02*
X-774560000Y587013000D01*
X-766310000Y622463000D02*
X-765310000Y622463000D01*
X-757060000Y587863000D02*
X-757060000Y587013000D01*
X-774560000Y617213000D02*
X-774560000Y616363000D01*
X-765310000Y622463000D02*
X-765810000Y621813000D01*
X-757060000Y587013000D02*
X-757920000Y587013000D01*
%TO.C,SW10*%
X-762960000Y576910000D02*
X-762960000Y576660000D01*
X-762960000Y576910000D02*
X-768660000Y576910000D01*
X-762960000Y573710000D02*
X-762960000Y573960000D01*
X-768660000Y576910000D02*
X-768660000Y576660000D01*
X-768660000Y573710000D02*
X-768660000Y573960000D01*
X-762960000Y573710000D02*
X-768660000Y573710000D01*
%TD*%
D12*
%TO.C,SW8*%
X-730567000Y575945000D03*
X-724217000Y578485000D03*
%TD*%
%TO.C,SW7*%
X-749617000Y575945000D03*
X-743267000Y578485000D03*
%TD*%
%TO.C,SW3*%
X-711517000Y614045000D03*
X-705167000Y616585000D03*
%TD*%
%TO.C,SW2*%
X-730567000Y614045000D03*
X-724217000Y616585000D03*
%TD*%
%TO.C,SW5*%
X-730567000Y594995000D03*
X-724217000Y597535000D03*
%TD*%
%TO.C,SW4*%
X-749617000Y594995000D03*
X-743267000Y597535000D03*
%TD*%
%TO.C,SW6*%
X-711517000Y594995000D03*
X-705167000Y597535000D03*
%TD*%
%TO.C,SW1*%
X-749617000Y614045000D03*
X-743267000Y616585000D03*
%TD*%
%TO.C,SW9*%
X-711517000Y575945000D03*
X-705167000Y578485000D03*
%TD*%
M02*
