%TF.GenerationSoftware,KiCad,Pcbnew,(6.0.1)*%
%TF.CreationDate,2022-06-19T22:09:19+09:00*%
%TF.ProjectId,reverse-mount-led-keboard,72657665-7273-4652-9d6d-6f756e742d6c,rev?*%
%TF.SameCoordinates,Original*%
%TF.FileFunction,Profile,NP*%
%FSLAX46Y46*%
G04 Gerber Fmt 4.6, Leading zero omitted, Abs format (unit mm)*
G04 Created by KiCad (PCBNEW (6.0.1)) date 2022-06-19 22:09:19*
%MOMM*%
%LPD*%
G01*
G04 APERTURE LIST*
%TA.AperFunction,Profile*%
%ADD10C,0.100000*%
%TD*%
%TA.AperFunction,Profile*%
%ADD11C,0.050000*%
%TD*%
%TA.AperFunction,Profile*%
%ADD12C,0.120000*%
%TD*%
G04 APERTURE END LIST*
D10*
X-774382500Y621030000D02*
G75*
G03*
X-776287500Y619125000I1J-1905001D01*
G01*
X-776287500Y565785000D02*
G75*
G03*
X-774382500Y563880000I1905001J1D01*
G01*
X-774382500Y621030000D02*
X-694372500Y621030000D01*
X-694372500Y563880000D02*
X-774382500Y563880000D01*
X-776287500Y565785000D02*
X-776287500Y619125000D01*
X-692467500Y619125000D02*
G75*
G03*
X-694372500Y621030000I-1905001J-1D01*
G01*
X-692467500Y619125000D02*
X-692467500Y565785000D01*
X-694372500Y563880000D02*
G75*
G03*
X-692467500Y565785000I-1J1905001D01*
G01*
D11*
%TO.C,LED6*%
X-708807000Y586895000D02*
X-706607000Y586895000D01*
X-706607000Y586895000D02*
X-706607000Y588095000D01*
X-706607000Y588095000D02*
X-708807000Y588095000D01*
X-708807000Y588095000D02*
X-708807000Y586895000D01*
D12*
%TO.C,LED2*%
X-728557000Y604945000D02*
X-724957000Y604945000D01*
X-724957000Y604945000D02*
X-724957000Y608145000D01*
X-724957000Y608145000D02*
X-728557000Y608145000D01*
X-728557000Y608145000D02*
X-728557000Y604945000D01*
%TO.C,LED9*%
X-708857000Y569195000D02*
X-706557000Y569195000D01*
X-706557000Y569195000D02*
X-706557000Y567695000D01*
X-706557000Y567695000D02*
X-708857000Y567695000D01*
X-708857000Y567695000D02*
X-708857000Y569195000D01*
%TO.C,LED8*%
X-727907000Y569195000D02*
X-725607000Y569195000D01*
X-725607000Y569195000D02*
X-725607000Y567695000D01*
X-725607000Y567695000D02*
X-727907000Y567695000D01*
X-727907000Y567695000D02*
X-727907000Y569195000D01*
%TO.C,LED3*%
X-709507000Y604945000D02*
X-705907000Y604945000D01*
X-705907000Y604945000D02*
X-705907000Y608145000D01*
X-705907000Y608145000D02*
X-709507000Y608145000D01*
X-709507000Y608145000D02*
X-709507000Y604945000D01*
%TO.C,LED7*%
X-746957000Y569195000D02*
X-744657000Y569195000D01*
X-744657000Y569195000D02*
X-744657000Y567695000D01*
X-744657000Y567695000D02*
X-746957000Y567695000D01*
X-746957000Y567695000D02*
X-746957000Y569195000D01*
%TO.C,LED1*%
X-747607000Y604945000D02*
X-744007000Y604945000D01*
X-744007000Y604945000D02*
X-744007000Y608145000D01*
X-744007000Y608145000D02*
X-747607000Y608145000D01*
X-747607000Y608145000D02*
X-747607000Y604945000D01*
D11*
%TO.C,LED4*%
X-746907000Y586895000D02*
X-744707000Y586895000D01*
X-744707000Y586895000D02*
X-744707000Y588095000D01*
X-744707000Y588095000D02*
X-746907000Y588095000D01*
X-746907000Y588095000D02*
X-746907000Y586895000D01*
%TO.C,LED5*%
X-727857000Y586895000D02*
X-725657000Y586895000D01*
X-725657000Y586895000D02*
X-725657000Y588095000D01*
X-725657000Y588095000D02*
X-727857000Y588095000D01*
X-727857000Y588095000D02*
X-727857000Y586895000D01*
%TD*%
M02*
