%TF.GenerationSoftware,KiCad,Pcbnew,(6.0.1)*%
%TF.CreationDate,2022-06-19T22:09:19+09:00*%
%TF.ProjectId,reverse-mount-led-keboard,72657665-7273-4652-9d6d-6f756e742d6c,rev?*%
%TF.SameCoordinates,Original*%
%TF.FileFunction,Soldermask,Bot*%
%TF.FilePolarity,Negative*%
%FSLAX46Y46*%
G04 Gerber Fmt 4.6, Leading zero omitted, Abs format (unit mm)*
G04 Created by KiCad (PCBNEW (6.0.1)) date 2022-06-19 22:09:19*
%MOMM*%
%LPD*%
G01*
G04 APERTURE LIST*
%ADD10C,1.900000*%
%ADD11C,4.000000*%
%ADD12O,2.500000X2.000000*%
%ADD13C,1.524000*%
%ADD14C,2.000000*%
%ADD15R,0.700000X0.550000*%
%ADD16R,1.000000X1.400000*%
%ADD17R,1.500000X1.000000*%
%ADD18R,0.800000X0.900000*%
G04 APERTURE END LIST*
D10*
%TO.C,SW8*%
X-721677000Y573405000D03*
D11*
X-726757000Y573405000D03*
D10*
X-731837000Y573405000D03*
D12*
X-730567000Y575945000D03*
X-724217000Y578485000D03*
%TD*%
D13*
%TO.C,U1*%
X-758198600Y616091000D03*
X-758198600Y613551000D03*
X-758198600Y611011000D03*
X-758198600Y608471000D03*
X-758198600Y605931000D03*
X-758198600Y603391000D03*
X-758198600Y600851000D03*
X-758198600Y598311000D03*
X-758198600Y595771000D03*
X-758198600Y593231000D03*
X-758198600Y590691000D03*
X-758198600Y588151000D03*
X-773418600Y588151000D03*
X-773418600Y590691000D03*
X-773418600Y593231000D03*
X-773418600Y595771000D03*
X-773418600Y598311000D03*
X-773418600Y600851000D03*
X-773418600Y603391000D03*
X-773418600Y605931000D03*
X-773418600Y608471000D03*
X-773418600Y611011000D03*
X-773418600Y613551000D03*
X-773418600Y616091000D03*
%TD*%
D10*
%TO.C,SW7*%
X-750887000Y573405000D03*
D11*
X-745807000Y573405000D03*
D10*
X-740727000Y573405000D03*
D12*
X-749617000Y575945000D03*
X-743267000Y578485000D03*
%TD*%
D10*
%TO.C,SW3*%
X-702627000Y611505000D03*
X-712787000Y611505000D03*
D11*
X-707707000Y611505000D03*
D12*
X-711517000Y614045000D03*
X-705167000Y616585000D03*
%TD*%
D10*
%TO.C,SW2*%
X-731837000Y611505000D03*
D11*
X-726757000Y611505000D03*
D10*
X-721677000Y611505000D03*
D12*
X-730567000Y614045000D03*
X-724217000Y616585000D03*
%TD*%
D10*
%TO.C,SW5*%
X-731837000Y592455000D03*
D11*
X-726757000Y592455000D03*
D10*
X-721677000Y592455000D03*
D12*
X-730567000Y594995000D03*
X-724217000Y597535000D03*
%TD*%
D14*
%TO.C,SW10*%
X-769060000Y575310000D03*
X-762560000Y575310000D03*
%TD*%
D10*
%TO.C,SW4*%
X-740727000Y592455000D03*
X-750887000Y592455000D03*
D11*
X-745807000Y592455000D03*
D12*
X-749617000Y594995000D03*
X-743267000Y597535000D03*
%TD*%
D11*
%TO.C,SW6*%
X-707707000Y592455000D03*
D10*
X-712787000Y592455000D03*
X-702627000Y592455000D03*
D12*
X-711517000Y594995000D03*
X-705167000Y597535000D03*
%TD*%
D10*
%TO.C,SW1*%
X-740727000Y611505000D03*
X-750887000Y611505000D03*
D11*
X-745807000Y611505000D03*
D12*
X-749617000Y614045000D03*
X-743267000Y616585000D03*
%TD*%
D10*
%TO.C,SW9*%
X-702627000Y573405000D03*
D11*
X-707707000Y573405000D03*
D10*
X-712787000Y573405000D03*
D12*
X-711517000Y575945000D03*
X-705167000Y578485000D03*
%TD*%
D15*
%TO.C,LED6*%
X-706207000Y587095000D03*
X-706207000Y587895000D03*
X-709207000Y587895000D03*
X-709207000Y587095000D03*
%TD*%
D16*
%TO.C,D3*%
X-699135000Y609730000D03*
X-699135000Y613280000D03*
%TD*%
D17*
%TO.C,LED2*%
X-724057000Y605795000D03*
X-724057000Y607295000D03*
X-729457000Y607295000D03*
X-729457000Y605795000D03*
%TD*%
D18*
%TO.C,LED9*%
X-707157000Y569745000D03*
X-708257000Y569745000D03*
X-708257000Y567145000D03*
X-707157000Y567145000D03*
%TD*%
D16*
%TO.C,D2*%
X-718185000Y609730000D03*
X-718185000Y613280000D03*
%TD*%
D18*
%TO.C,LED8*%
X-726207000Y569745000D03*
X-727307000Y569745000D03*
X-727307000Y567145000D03*
X-726207000Y567145000D03*
%TD*%
D16*
%TO.C,D4*%
X-737235000Y590680000D03*
X-737235000Y594230000D03*
%TD*%
%TO.C,D1*%
X-737235000Y609730000D03*
X-737235000Y613280000D03*
%TD*%
D17*
%TO.C,LED3*%
X-705007000Y605795000D03*
X-705007000Y607295000D03*
X-710407000Y607295000D03*
X-710407000Y605795000D03*
%TD*%
D16*
%TO.C,D8*%
X-718185000Y571630000D03*
X-718185000Y575180000D03*
%TD*%
%TO.C,D7*%
X-737235000Y571630000D03*
X-737235000Y575180000D03*
%TD*%
D18*
%TO.C,LED7*%
X-745257000Y569745000D03*
X-746357000Y569745000D03*
X-746357000Y567145000D03*
X-745257000Y567145000D03*
%TD*%
D16*
%TO.C,D5*%
X-718185000Y590680000D03*
X-718185000Y594230000D03*
%TD*%
D17*
%TO.C,LED1*%
X-743107000Y605795000D03*
X-743107000Y607295000D03*
X-748507000Y607295000D03*
X-748507000Y605795000D03*
%TD*%
D15*
%TO.C,LED4*%
X-744307000Y587095000D03*
X-744307000Y587895000D03*
X-747307000Y587895000D03*
X-747307000Y587095000D03*
%TD*%
D16*
%TO.C,D9*%
X-699135000Y571630000D03*
X-699135000Y575180000D03*
%TD*%
D15*
%TO.C,LED5*%
X-725257000Y587095000D03*
X-725257000Y587895000D03*
X-728257000Y587895000D03*
X-728257000Y587095000D03*
%TD*%
D16*
%TO.C,D6*%
X-699135000Y590680000D03*
X-699135000Y594230000D03*
%TD*%
M02*
